<?xml version="1.0" encoding="utf-8"?>
<!-- Generator: Adobe Illustrator 26.0.0, SVG Export Plug-In . SVG Version: 6.00 Build 0)  -->
<svg version="1.1" xmlns="http://www.w3.org/2000/svg" xmlns:xlink="http://www.w3.org/1999/xlink" x="0px" y="0px"
	 viewBox="0 0 567.2 1564.6" style="enable-background:new 0 0 567.2 1564.6;" xml:space="preserve">
<style type="text/css">
	.st0{display:none;}
	.st1{display:inline;stroke:#000000;stroke-miterlimit:10;}
	.st2{display:none;fill:#010202;stroke:#000000;stroke-miterlimit:10;}
	.st3{fill:none;}
	.st4{fill:#FFFFFF;}
	.st5{font-family:'Calibri-Bold';}
	.st6{font-size:15px;}
	.st7{fill:#7194D3;}
	.st8{font-family:'Calibri';}
	.st9{font-size:19.4284px;}
	.st10{fill:#E52421;}
	.st11{font-size:30px;}
	.st12{fill:none;stroke:#FFFFFF;stroke-width:3;stroke-miterlimit:10;}
	.st13{fill:#2A4C9B;}
	.st14{fill:#334A9A;}
	.st15{display:inline;}
	.st16{fill:#35499A;}
</style>
<g id="Capa_1">
	<g class="st0">
		<rect y="0" class="st1" width="567.2" height="1654.1"/>
	</g>
	<g>
		<rect y="0" class="st2" width="567.2" height="1654.1"/>
		<rect x="199.4" y="1478.6" class="st3" width="183.3" height="54"/>
		<text transform="matrix(1 0 0 1 218.1811 1488.8149)" class="st4 st5 st6">Sexto intento fallido de </text>
		<text transform="matrix(1 0 0 1 260.8811 1506.8149)" class="st4 st5 st6">Vanguard </text>
		<text transform="matrix(1 0 0 1 222.1025 1463.2773)" class="st7 st8 st9">26 de septiembre</text>
		<g id="Capa_5">
		</g>
		<g>
			<g transform="translate(0.000000,512.000000) scale(0.100000,-0.100000)">
				<path class="st10" d="M1012.5,3976.2c2.9-2.7,5-3.1,9.2-1.7c3.1,1,148.7,78,323.7,171.4c175,93.3,318.5,169.5,319.1,169.5
					s1.5-8.4,2.3-18.5c0.6-10.3,1.3-20.6,1.5-22.7c0.6-3.4-36.7-31.3-224.9-167.8c-124-90-226.3-165.5-227.2-167.4
					c-2.9-6.3,1.5-13.4,8.2-13.4c4.2,0,54.7,35.7,228.7,162l223.4,162.2l5.2-9.6c13.8-24.8,33.4-44.5,58.7-58.3l9.2-5.2
					l-162.2-223.2c-127.1-175.2-162-224.5-162-228.9c0-6.7,7.1-11.1,13.2-8.2c2.1,1,77.4,103.2,167.4,227.2
					c137.2,188.8,164.3,225.5,167.8,224.9c2.3-0.2,12.6-1,22.7-1.5c10.3-0.8,18.7-1.7,18.7-2.3s-76.2-144.1-169.7-319.1
					c-93.3-175-170.3-320.7-171.2-323.5c-1.3-4.4-1-6.5,1.7-9.4c4.2-4.6,11.1-5,14.5-0.8c1.3,1.7,80.8,150.2,176.8,330l174.3,327.1
					l13.6,5.2c44.5,16.4,78.7,55,89.2,100.5c3.8,16.6,3.8,47.4,0,64.4c-1.7,7.5-7.3,21.6-12,31.5c-7.6,15.3-11.7,20.8-26.2,35.5
					c-14.7,14.5-20.3,18.5-35.5,26.2c-9.9,4.8-24.3,10.3-31.5,12c-17,3.8-47.8,3.8-64.4,0c-45.5-10.5-84.1-44.7-100.5-89l-5.2-13.8
					l-327-174.1c-179.8-95.9-328.3-175.4-330.2-177C1007.6,3987.3,1008,3980.4,1012.5,3976.2z M1687.1,4322.3
					c0,5.5,1.1,6.5,19.1,15.9c10.5,5.5,20.1,11.7,21.2,13.8c2.7,5.2,0.4,11.1-5,13.6c-3.8,1.7-6.3,1.1-14.3-3.1
					c-5.5-2.9-10.3-4.8-10.7-4.4c-1.7,1.5,18.3,29.6,26.2,36.7c13,11.8,30.2,21.8,46.4,26.9c22.2,7.3,50.8,7.3,73,0
					c26.8-8.6,48-24.7,63.8-48.3c13.9-20.8,19.7-39.9,19.7-66.5c0-32.5-8.6-54.8-30.6-80.6c-7.6-9.2-36.3-30.4-38.2-28.5
					c-0.4,0.4,1.5,5.2,4.4,10.7c4.2,8,4.8,10.5,3.1,14.3c-2.5,5.4-8.4,7.6-13.6,5c-2.1-1.1-8.2-10.5-13.8-21l-9.9-18.9l-11.3-1
					c-52.9-4.8-104,27.7-123.1,78.2c-5.2,13.8-8.6,34.4-7.3,44.7C1686.7,4313.3,1687.1,4319,1687.1,4322.3z"/>
				<path class="st10" d="M1850.1,4377.9c21-13.6,35.4-35,39.6-59.4c2.7-14.7,7.8-20.4,15.1-16.4c6.3,3.2,7.6,7.6,5.7,19.5
					c-5,30.8-22.9,57.9-49.5,74c-11.8,7.1-21,4.6-21-5.9C1840,4385.3,1841.9,4383,1850.1,4377.9z"/>
				<path class="st10" d="M1886,4255.4c5.9-4,11.7-1.1,16.4,8.6c5,9.9,5.5,17.6,1.3,21.6c-6.3,6.5-13.4,2.5-18.9-10.9
					C1880.9,4265.1,1881.2,4258.8,1886,4255.4z"/>
				<path class="st10" d="M1679.5,4420.5c5.4-5.4,7.8-4.8,18.9,3.8c15.9,12.6,19.1,21.8,9.6,26.9c-5.5,2.9-9.4,1-21.4-10.3
					C1674.9,4430,1673.5,4426.4,1679.5,4420.5z"/>
				<path class="st10" d="M1733,4455.8c3.6-3.2,4.8-3.4,12-1.1c32.5,9.9,34.8,10.3,59.6,10.5c32.3,0.2,51.4-4.4,79.3-19.1
					c66.7-35,99.4-121.9,72.6-193.4c-4.6-11.8-3.8-18.3,2.1-21.6c9.6-5,16.2,5.2,24.3,36.3c5,20.4,4,61.3-2.1,84.5
					c-8.6,32.5-23.9,58.9-48,82.9c-24.1,23.9-48.5,37.6-83.5,47c-19.1,5.2-60.8,6.3-78.2,2.1c-18-4.4-35.2-10.3-38.8-13.4
					C1728,4466.7,1728.2,4460,1733,4455.8z"/>
				<path class="st10" d="M1920.2,4179.7c6.7-6.7,11.5-4.6,24.8,11.7c12.8,15.5,12.8,26.6-0.2,26.6c-3.8,0-7.5-3.1-16.8-14.3
					c-6.3-7.8-11.7-15.7-11.7-17.2S1918.1,4181.8,1920.2,4179.7z"/>
			</g>
		</g>
		<text transform="matrix(1 0 0 1 239.5169 95.2517)" class="st10 st8 st9">4 de octubre</text>
		<text transform="matrix(1 0 0 1 234.1293 232.7261)" class="st10 st8 st9">3 de noviembre</text>
		<text transform="matrix(1 0 0 1 235.1006 370.337)" class="st7 st8 st9">6 de diciembre </text>
		<text transform="matrix(1 0 0 1 239.9635 549.8601)" class="st10 st8 st9">3 de febrero</text>
		<text transform="matrix(1 0 0 1 239.5172 688.8152)" class="st7 st8 st9">5 de febrero</text>
		<text transform="matrix(1 0 0 1 240.9347 815.0048)" class="st7 st8 st9">17 de marzo</text>
		<text transform="matrix(1 0 0 1 245.3257 959.873)" class="st7 st8 st9">28 de abril</text>
		<g id="Capa_4">
			<text transform="matrix(1 0 0 1 264.2242 57.4319)" class="st4 st5 st11">1957</text>
			<line class="st3" x1="290.2" y1="63.2" x2="291.2" y2="75.1"/>
		</g>
		<g id="Capa_7">
			<line class="st12" x1="290.2" y1="168" x2="290.2" y2="208.7"/>
			<line class="st12" x1="290.2" y1="307.5" x2="290.2" y2="348.2"/>
			<line class="st12" x1="290.2" y1="626.6" x2="290.2" y2="667.3"/>
			<line class="st12" x1="290.2" y1="749" x2="290.2" y2="789.6"/>
			<line class="st12" x1="289.9" y1="896.4" x2="290" y2="937.1"/>
		</g>
		<g id="Capa_8">
			<g>
				<g transform="translate(0.000000,512.000000) scale(0.100000,-0.100000)">
					<path class="st10" d="M4305.2,2938.9c-91.3-12.6-168.8-77.3-197.5-164.9c-18.8-57.3-14.2-125.3,11.7-176.4l4.2-8.5l-9.4-1.1
						c-5.1-0.7-14.5-3.7-20.7-6.5c-10.3-4.8-20-14-96.8-90.6c-48.5-48.3-85.8-87.1-86.5-89.6c-0.5-2.5,0.2-6.5,1.9-9.9
						c1.8-3.2,21.2-23.7,43.4-45.7c31.3-31.3,41.4-40.4,46-41.2c4.8-1.1,5.7-1.8,4.6-5c-0.5-2.1-2.7-11.7-4.8-21.4
						c-3.5-16.3-3.9-23-3.9-86.7c-0.2-67.4-0.2-69.2,3.7-76.1c5-9.2,12-15.8,21.8-20.2c7.6-3.5,11.3-3.7,99.8-3.7h91.7l6.5,6.7
						c3.5,3.5,10.1,10.8,14.5,15.9l8.1,9.4l3.7-13.3c5.7-18.9,5-18.8,45.1-18.8c32.9,0,33.3,0,37.5,4.4c2.5,2.3,4.4,5.8,4.4,8
						c0,1.9-5.7,25.7-12.6,52.6l-12.6,48.8l8.8,18.8c5,10.3,9.9,22.1,11.1,26.2c1.2,4.2,2.7,7.6,3.2,7.6c0.7,0,8-35.6,16.1-79.1
						c12.7-67.3,15.6-79.8,18.8-83.2l3.9-3.9l111.9-0.2h111.7l4.2,4.4c4.2,4.1,4.4,5.3,4.4,24.1c0,10.8-0.9,22.8-2.1,26.7
						c-2.7,9-13.5,21.1-22.1,25.1l-6.9,3l-6.2,25.1c-7.3,30.4-9.2,33.1-23.7,33.1h-9.7v28.3v28.3h108.8h109l4.2,4.4l4.4,4.2v90.4
						v90.4l-4.4,4.2l-4.2,4.4h-118.8H4513l-4.2-4.4l-4.4-4.2v-123.2v-123h-9.7c-14.5,0-16.5-2.7-23.7-33.1
						c-5.8-24.1-6.4-25.3-11.5-27.4c-3-1.2-8.7-5.1-12.6-8.7l-7.3-6.5l-15.4,98.4c-8.5,54.2-15.4,100.5-15.4,103s5.7,21.2,12.6,41.6
						l12.4,37.2l-0.7,17.7c-0.5,9.7-1.4,18.9-1.9,20.4c-0.9,1.9,3.4,5,16.1,11.3c67.4,34.3,114.5,100.2,127.2,178
						c3.4,20.7,2.5,63.5-1.8,83c-20.9,95.2-93.4,168.3-186.5,187.8C4366.1,2939.7,4324.1,2941.5,4305.2,2938.9z M4368,2910
						c79.6-12,145.7-68.3,170.8-145.7c30.4-93.1-10.8-199.1-96.3-247.8c-7.4-4.2-14.3-7.6-15.4-7.6c-4.1,0-6,25-6,75v50.6l40.7,20.4
						c31.7,15.8,41.2,21.4,42.8,25c3.2,7.1-11.7,81.2-17.3,86.9c-2.3,2.3-5.1,4.1-6.4,4.1c-1.2,0.2-17.5-2.8-36.1-6.5l-33.8-6.5
						l-27.8,20.7c-15.4,11.3-29.4,20.7-31.1,20.7c-1.9,0-19.1-6.2-38.4-13.8l-35-13.8l-28.7,7.1c-24.6,6-29.2,6.7-32.7,4.8
						c-4.2-2.3-44.6-55-49-63.9c-3.4-6.9,0-14.7,7.4-18.2c3.2-1.4,21.1-7.6,39.8-13.8c29.2-9.7,34-11.7,34-14.9
						c0-1.9-2.5-26.7-5.5-55.2l-5.7-51.7l-16.5-16.3l-16.5-16.3l-10.8,9.4c-21.2,18.4-43.7,50.4-54.9,78.4
						c-43.2,108.1,8.3,230.6,115.6,275.2C4290.1,2910.9,4330.1,2915.7,4368,2910z M4373,2750.9c13.3-10.1,26.2-19.3,28.5-20.5
						c3.5-1.9,8.7-1.4,34.2,3.4c16.5,3.2,30.3,5.3,31,4.8c1.2-1.2,9.9-43.7,9-44.6c-0.4-0.2-16.6-8.5-36.3-18.4l-35.9-17.9h-17.2
						H4369l-18.6,12.4c-10.3,6.7-19.1,12.4-19.6,12.4c-1.1,0-3.4-3.4-12.9-17.9l-2.8-4.6l23.2-15.4l23.2-15.2h15.8h15.8v-42.5v-42.5
						h-40.7h-40.7l-21.8,10.8c-11.9,6-21.9,11.1-22.1,11.3c-0.4,0.4,2.3,28,6,61.6c6.4,57.5,6.5,61.2,3.7,65.5
						c-2.3,3.5-9,6.5-36.1,15.4c-18.2,6.2-34,11.7-34.9,12.4c-1.8,1.8,21.6,32.7,24.6,32.6c1.2-0.2,12.9-2.8,26-6l23.9-5.8
						l33.4,13.3c18.4,7.4,33.6,13.5,34,13.6C4348.4,2769.1,4359.5,2760.8,4373,2750.9z M4136.4,2558.5c4.6-1.2,9.7-5.5,17.7-14.5
						c10.8-12.2,11.1-12.9,11.9-23.5c0.5-8.3-0.2-12.9-2.8-18.8c-3.9-8.7-15.4-22.8-18.6-22.8c-1.2,0-15.2,13.1-31.3,29.2l-29,29.2
						l6.9,7.3C4104.5,2558.4,4119.9,2563.1,4136.4,2558.5z M4279.7,2528.5l25-12.4h45.7h45.5l1.2-9c0.7-5,0.9-9.6,0.4-10.1
						c-2.7-2.7-32.7-7.6-51.5-8.5c-35-1.8-76.6,7.3-105.7,22.7l-10.4,5.5l12,12.2c6.5,6.5,12,12,12.4,12
						C4254.4,2540.8,4265.9,2535.4,4279.7,2528.5z M4117.2,2453.2c-32.6-26-52.2-45.1-68.8-67.3c-5.1-6.7-17.3-20.4-27.1-30.1
						l-17.9-17.5l-9.7,9.6l-9.7,9.7l32.6,32.7c17.9,18.1,33.4,34.5,34.5,36.8c3.4,6.4,0.9,10.8-16.3,28.3l-16.3,16.3l23,23l23,23
						l29.7-29.6l29.7-29.7L4117.2,2453.2z M4253.5,2474.5l8.5-3.2l-10.1-5.5c-5.5-3-12.9-8.8-16.3-12.9l-6.4-7.6h-38.6h-38.8
						l20.9,17.5c11.5,9.7,24.2,21.1,28.5,25.5l7.8,7.8l17.9-9.2C4236.9,2481.7,4248.9,2476.1,4253.5,2474.5z M4404.1,2464.4
						c3.2-11.9,0.9-23.9-10.1-57.2l-11.3-33.4l-6.4-1.4c-17.7-3.7-39.6-20.9-47.6-37.2c-2.5-5.1-9-23.4-14.5-40.4
						s-11.3-34.5-12.9-38.9l-2.8-7.8l-8.7,33.1l-8.7,33.3l11.7,15.8c6.4,8.5,14.5,17.9,18.2,20.5c25.8,19.5,34.7,34.7,34.7,59.1
						c0.2,12.7-0.7,16.6-4.8,25.7c-2.8,5.8-7.8,13.5-11.1,17l-6.2,6.4l22.7,1.1c12.4,0.7,29.4,2.8,37.7,4.6
						C4403.6,2469,4402.9,2469,4404.1,2464.4z M4730.8,2445.3v-14.2h-99.1h-99.1v14.2v14.2h99.1h99.1V2445.3z M4008.4,2441.2
						l9.2-9.4l-7.6-7.4l-7.6-7.4l-9.6,9.7l-9.6,9.7l6.9,7.1c3.7,3.9,7.4,7.1,8,7.1S4003.3,2446.3,4008.4,2441.2z M4299,2441.7
						c12.2-6.2,20.7-22.1,18.9-35.4c-1.6-12-6.5-19.3-20.2-29.7c-9.2-7.1-17.3-15.9-28.1-30.1c-8.1-11-15.8-21.8-16.8-23.9
						c-1.4-3.4,2.5-20.9,20.5-91.7c12.4-48,23.9-92.9,25.7-99.5l3.4-12l-14.3,0.5l-14.2,0.5l-31.7,104.2l-31.5,104.4l20.4,27.4
						c20.2,27.1,20.5,27.6,19.5,35c-0.5,4.2-1.6,11.1-2.1,15.4c-0.7,4.4-0.2,10.4,1.1,14.3c2.7,8.1,11.5,18.4,18.6,21.4
						C4276.2,2446.3,4290.9,2445.8,4299,2441.7z M4219.4,2410.9c0-3.2,0.5-9.6,1.1-14.2l1.2-8.1h-67.1l-67.1,0.2l14.7,14l14.7,14.2
						h51.3h51.1L4219.4,2410.9L4219.4,2410.9z M3973,2405.8l9.2-9.4l-9.4-9.2l-9.4-9.2l-9.6,9.7l-9.6,9.7l8.7,8.8
						c4.8,4.8,9.2,8.8,9.7,8.8S3967.9,2410.9,3973,2405.8z M4730.8,2388.6v-14.2h-99.1h-99.1v14.2v14.2h99.1h99.1V2388.6z
						 M4192.1,2352c-14.2-18.4-15.6-8,14.9-108.3l26.9-89l-5-5.1c-2.7-2.8-5.3-5.1-6-5.1c-0.5,0-2.1,2.8-3.4,6.2
						c-1.2,3.5-5,9-8.3,12.4c-10.8,10.8-15,12.2-41.8,13.3l-24.1,0.9l6,15c8.5,20.9,10.6,34,8.1,48.7c-5.3,31.9-26.7,55.6-57.9,63.9
						c-17.9,4.8-38.8,1.8-57.3-8.1c-5.3-3-9.9-5-10.3-4.6c-1.4,1.4,11,33.1,18.4,47.1c12.6,23.7,3.5,21.2,79.8,21.2h66.2
						L4192.1,2352z M4730.8,2332v-14.2h-99.1h-99.1v14.2v14.2h99.1h99.1V2332z M4399.2,2232l17.7-112.6l-13.3,0.5l-13.3,0.5
						l-19.5,97.3c-12.4,62.3-18.9,98.9-18.2,101.9c2.1,8.1,20,23.9,27.8,24.6C4380.9,2344.4,4389.4,2293.8,4399.2,2232z
						 M4098.3,2276.3c19.3-5.7,33.3-24.6,33.4-45.1c0-10.3-1.4-15-11.3-40.2c-10.3-26-11.1-29-9.2-33.8c3.4-8.1,8-9.2,42.8-9.2
						c31.5,0,31.9,0,36.1-4.4c3.7-3.5,4.4-6,4.4-14.2v-9.7h-78.8c-54.7,0-80,0.5-83,1.9c-7.8,3.5-8.3,8.1-7.8,62.8l0.5,51.1l5,10.1
						c5.7,11.5,13.3,18.9,26.5,25.7C4073.5,2279.6,4083.3,2280.9,4098.3,2276.3z M4539.3,2190.4l3.5-14.2h-24.4H4494l3.5,14.2
						l3.5,14.2h17.3h17.3L4539.3,2190.4z M4570.7,2143.5c3.7-3.5,4.4-6,4.4-14.2v-9.7h-56.6h-56.6v9.7c0,8.1,0.7,10.6,4.4,14.2
						l4.2,4.4h48h48L4570.7,2143.5z"/>
					<path class="st10" d="M4306.1,2881.5c-22.3-3.7-57.7-17.7-71-28c-7.8-6-8.3-15.8-1.2-22.5c5.5-5.1,10.6-4.4,24.6,3.5
						c22.5,12.7,52.6,21.2,75,21.2c15,0,22.3,14.2,12.4,23.9c-3.7,3.9-5.8,4.4-15.4,4.2C4324.3,2883.8,4313.3,2882.8,4306.1,2881.5z
						"/>
					<path class="st10" d="M4381.3,2870.9c-5-4.8-5.7-12.4-1.9-17.9c1.4-2.1,6.5-5.1,11.1-6.9c4.6-1.6,15-6.5,23-10.8
						c7.8-4.2,16.1-7.8,18.1-7.8c8.8,0,15.4,12.7,10.8,21.2c-3.9,7.1-42.5,26.5-52.6,26.5
						C4387.5,2875.3,4383.6,2873.4,4381.3,2870.9z"/>
					<path class="st10" d="M4483.6,2640.8c-2.1-1.4-6.9-8.3-10.8-15.4c-3.9-7.1-11.1-18.1-16.1-24.2c-9.9-12.4-11.3-18.4-5.5-24.6
						c4.8-5.1,11-6.5,16.5-3.5c11.5,6,36.6,45,36.6,56.6C4504.3,2640.7,4492.4,2647,4483.6,2640.8z"/>
					<path class="st10" d="M4333,2739.1c-3.4-2.1-7.1-6.5-8.7-10.3c-2.3-5.7-2.5-7.4-0.4-13.6c2.8-7.8,11.9-15,18.8-15
						s16.5,5.3,19.1,10.8c5.7,10.8,1.8,23.9-8.7,28.8C4345.2,2743.5,4340.1,2743.3,4333,2739.1z"/>
					<path class="st10" d="M4634,2930.2c-19.5-9.7-36.1-31.1-42.1-54.3c-11.5-44.1,16.6-90.4,62.3-102.3
						c44.1-11.5,90.4,16.6,102.3,62.3c4.1,15.4,3.5,24.6-1.8,29.7c-5,5.1-10.8,5.5-22.1,1.6c-15.8-5.7-38.4-0.7-53.3,11.5
						c-8.7,7.1-17.2,23.7-18.6,36.5c-1.2,10.6-5.5,17.3-12.4,19.3C4646.2,2935.1,4640.7,2933.6,4634,2930.2z M4640.4,2885.1
						c13.5-28.7,44.8-48.7,76.8-48.7h10.3l-4.8-9c-5.7-10.3-11.7-15.8-24.4-22.5c-7.6-3.9-11.3-4.6-24.1-4.6
						c-12.4-0.2-16.6,0.7-23.9,4.2c-11.3,5.5-21.9,16.1-27.4,27.4c-6.2,12.6-6.2,35.4-0.2,46.9c4.2,8.1,10.6,17.7,11.7,17.7
						C4634.7,2896.6,4637.4,2891.4,4640.4,2885.1z"/>
					<path class="st10" d="M4022.9,2912.5v-14.2h-14.2h-14.2v-14.2V2870h14.2h14.2v-14.2v-14.2h14.2h14.2v14.2v14.2h14.2h14.2v14.2
						v14.2h-14.2h-14.2v14.2v14.2h-14.2h-14.2V2912.5z M4051.2,2884.2V2870H4037h-14.2v14.2v14.2h14.2h14.2V2884.2z"/>
					<path class="st10" d="M3994.6,2742.6v-14.2h14.2h14.2v14.2v14.2h-14.2h-14.2V2742.6z"/>
					<path class="st10" d="M3952.1,2700.1V2686h14.2h14.2v14.2v14.2h-14.2h-14.2V2700.1z"/>
					<path class="st10" d="M4037.1,2700.1V2686h14.2h14.2v14.2v14.2h-14.2h-14.2V2700.1z"/>
					<path class="st10" d="M4702.5,2700.1V2686h-14.2h-14.2v-14.2v-14.2h14.2h14.2v-14.2v-14.2h14.2h14.2v14.2v14.2h14.2h14.2v14.2
						v14.2H4745h-14.2v14.2v14.2h-14.2h-14.2v-14.3L4702.5,2700.1L4702.5,2700.1z M4730.8,2671.8v-14.2h-14.2h-14.2v14.2v14.2h14.2
						h14.2V2671.8z"/>
					<path class="st10" d="M3994.6,2657.6v-14.2h14.2h14.2v14.2v14.2h-14.2h-14.2V2657.6z"/>
					<path class="st10" d="M4617.6,2586.9v-14.2h-14.2h-14.2v-14.2v-14.2h14.2h14.2v-14.2v-14.2h14.2h14.2v14.2v14.2h14.2h14.2v14.2
						v14.2H4660h-14.2v14.2v14.2h-14.2h-14.2v-14.2H4617.6z M4645.9,2558.5v-14.2h-14.2h-14.2v14.2v14.2h14.2h14.2V2558.5z"/>
				</g>
			</g>
		</g>
		<g id="Capa_9">
			<rect x="198.6" y="107.1" class="st3" width="183.3" height="54"/>
			<text transform="matrix(1 0 0 1 217.4817 117.2582)" class="st4 st5 st6">Lanzamiento Sputnik 1, </text>
			<text transform="matrix(1 0 0 1 217.1817 135.2582)" class="st4 st5 st6">primer satélite artificial </text>
			<text transform="matrix(1 0 0 1 236.6817 153.2582)" class="st4 st5 st6">puesto en órbita. </text>
			<rect x="199.2" y="243.7" class="st3" width="183.3" height="54"/>
			<text transform="matrix(1 0 0 1 218.0833 253.8226)" class="st4 st5 st6">Lanzamiento Sputnik 2, </text>
			<text transform="matrix(1 0 0 1 202.8833 271.8226)" class="st4 st5 st6">primer animal en el espacio, </text>
			<text transform="matrix(1 0 0 1 272.7833 289.8226)" class="st4 st5 st6">Laika.</text>
			<rect x="198.6" y="380.2" class="st3" width="183.3" height="54"/>
			<text transform="matrix(1 0 0 1 216.3116 390.3875)" class="st4 st5 st6">Vanguard TV3 – Intento </text>
			<text transform="matrix(1 0 0 1 206.9116 408.3875)" class="st4 st5 st6">fallido y estallado antes de </text>
			<text transform="matrix(1 0 0 1 259.7116 426.3875)" class="st4 st5 st6">despegar. </text>
			<rect x="199.2" y="560.8" class="st3" width="183.3" height="54"/>
			<text transform="matrix(1 0 0 1 235.6941 570.921)" class="st4 st5 st6">Primer intento de </text>
			<text transform="matrix(1 0 0 1 207.7941 588.921)" class="st4 st5 st6">lanzamiento del Sputnik III </text>
			<text transform="matrix(1 0 0 1 275.3941 606.921)" class="st4 st5 st6">falla.</text>
			<rect x="199.2" y="698.8" class="st3" width="183.3" height="54"/>
			<text transform="matrix(1 0 0 1 219.6902 708.9501)" class="st4 st5 st6">Un segundo intento de </text>
			<text transform="matrix(1 0 0 1 243.4902 726.9501)" class="st4 st5 st6">Vanguard falla. </text>
			<rect x="198.4" y="975" class="st3" width="183.3" height="54"/>
			<text transform="matrix(1 0 0 1 214.888 985.2092)" class="st4 st5 st6">Tercer intento fallido de </text>
			<text transform="matrix(1 0 0 1 259.888 1003.2092)" class="st4 st5 st6">Vanguard </text>
			<rect x="198.4" y="828.5" class="st3" width="183.3" height="54"/>
			<text transform="matrix(1 0 0 1 200.3128 838.6289)" class="st4 st5 st6">Vanguard 1 - Consigue poner </text>
			<text transform="matrix(1 0 0 1 203.8128 856.6289)" class="st4 st5 st6">en órbita un minisatélite de </text>
			<text transform="matrix(1 0 0 1 265.9128 874.6289)" class="st4 st5 st6">1,47 kg.</text>
			<rect x="198.3" y="1241" class="st3" width="183.3" height="54"/>
			<rect x="198.6" y="1236.5" class="st3" width="183.3" height="54"/>
			<text transform="matrix(1 0 0 1 213.836 1246.6449)" class="st4 st5 st6">Cuarto intento fallido de </text>
			<text transform="matrix(1 0 0 1 260.136 1264.6449)" class="st4 st5 st6">Vanguard </text>
		</g>
		<g id="Capa_10">
			<g>
				<g>
					<g transform="translate(0.000000,512.000000) scale(0.100000,-0.100000)">
						<path class="st13" d="M1486.7,1573.5c-18.4-3-39.2-9.5-55.9-17.9c-33.1-16.4-39.9-25.4-28.7-37.6c4.8-5.3,12.2-4.8,21.9,1.2
							c59.1,37.6,128.2,37.6,187.4,0c9.7-6,17-6.5,21.9-1.2c4.8,5.2,5.7,8.7,3.7,14.5c-2.2,6-10.7,12.2-31.1,22.4
							C1569.3,1573.2,1526.9,1579.8,1486.7,1573.5z"/>
						<path class="st13" d="M1301.3,1518.2c-2.3-0.3-9.3-1.8-15.9-3.3c-62.4-14.2-109.4-73.6-109.4-138.4c0-15.5,4.5-38.1,10.2-52.1
							c2.8-6.8,5-12.5,4.7-12.7s-5-2.5-10.4-5.3c-38.9-19.9-63.6-64-60.8-107.7c2.7-41.6,26.6-77,64-95.4
							c52.4-25.5,115.4-7,146.8,43.4c5.2,8.5,12.5,27.1,12.5,32.1c0,4.8-8.9,13.2-14,13.2c-5.8,0-13.4-7.7-16.9-17.2
							c-11.4-31.6-44.6-54.6-78.5-54.6c-64.6,0.2-105.9,68.6-75.5,125.9c10,19,34.9,38.6,53.8,42.1c7.3,1.3,15.9,8.7,15.9,13.5
							c0,1.7-4.2,11.4-9.2,21.4c-18.4,36.9-18.9,69-1.5,104.4c14.2,28.6,41.4,50.9,72.5,59.4c17.2,4.7,45.6,4,62.6-1.5
							c23-7.7,39.4-19.4,60.3-43.4c7.7-9,13.9-10.2,21.4-4.3c7.2,5.7,6.2,14-3.7,26.9c-17.4,22.7-48.1,42.7-76.3,49.9
							C1341.1,1517.5,1310.3,1519.9,1301.3,1518.2z"/>
						<path class="st13" d="M1695.9,1517.7c-12.7-2.2-31.6-8.2-43.1-13.9c-21.5-10.9-45.9-32.7-54.6-49.1c-3.2-6.2-3.3-7.5-1.3-12.4
							c2.7-6.5,11.2-10.7,17.2-8.5c2.2,0.8,8,6.7,13.2,13.2c15.4,18.9,34.1,31.6,58.1,38.9c16,5,43.6,5.3,60.1,0.8
							c31.1-8.5,58.4-31.1,72.3-59.4c17.5-35.9,17-67.5-1.3-104.4c-5-10-9.2-19.7-9.2-21.4c0-5,8.5-12.2,15.9-13.5
							c11.7-2.2,27.5-11.2,38.2-21.9c33.6-33.1,34.6-84.2,2.7-118.2c-27.2-29.1-66.1-35.9-101.5-18c-18.2,9.2-32.1,24.9-40.4,45.7
							c-2,5.3-5.3,10.7-7.3,12c-7.7,5.5-19.7,1.2-22-8.2c-1.3-5.7,7.5-27.4,16.5-39.9c14.4-20,33.2-34.1,57.1-42.3
							c11.9-4.2,15.7-4.7,35.1-4.8c18.4,0,23.5,0.7,33.4,3.8c37.4,12.5,64,38.9,75.3,74.6c16.7,52.4-7.2,110.2-55.6,135.3
							c-5.3,2.8-10,5.2-10.4,5.3c-0.3,0.2,1.2,4.7,3.5,10c7.8,18.2,10.4,31.4,10.4,54.8c0,15.4-0.8,24.9-2.8,32.6
							c-14.2,53.6-52.8,92.2-105.5,106C1737.8,1518.2,1708.3,1519.6,1695.9,1517.7z"/>
						<path class="st13" d="M1511.7,1174.7c-2.3-1.2-7.8-7.7-12.4-14.5c-30.1-45.6-85.7-64.4-134.3-45.6c-6.2,2.3-14.2,4.7-18,5
							c-6,0.7-7.3,0.2-10.5-3.7c-4.7-6.2-4.5-14.2,0.3-18.9c4.8-4.5,21-11.2,35.9-14.9c13.7-3.3,45.4-3.7,59.6-0.7
							c27.2,5.8,53.9,20.9,73.6,41.2l12,12.4l7.7-9c16-18.9,44.1-35.9,70.5-42.9c17.2-4.5,49.6-5,66.1-1c15,3.7,31.2,10.4,35.9,14.9
							c8,7.5,2.3,23-8.3,23c-3,0-11-2.2-17.9-4.8c-50.3-19.5-106.4-1.2-135.9,44.6C1525.2,1176.4,1520.7,1179.2,1511.7,1174.7z"/>
						<path class="st13" d="M1508.2,1086.9l-4.8-4.8V920.6V759.1l4.8-4.8c6.3-6.3,12.4-6.3,18.7,0l4.8,4.8v161.5v161.5l-4.8,4.8
							c-3,2.8-6.7,4.8-9.3,4.8S1511.2,1089.7,1508.2,1086.9z"/>
						<path class="st13" d="M1422.9,1058.2c-5.8-5.7-5.7-3.3-0.7-42.4c5.5-41.2,7.8-76.6,8.9-124.4c0.8-45.1,0.5-50.6-2.5-65.5
							c-1.8-9-5.3-20.5-7.8-25.9c-4.7-10.4-16.7-27.2-19.2-27.2c-0.8,0-2.8,2.5-4.3,5.3c-11.2,22.2-39.1,38.9-70.8,42.2
							c-22.2,2.3-47.4-6.3-65.5-22.5l-9.5-8.3l-8,1.7c-15.7,3.7-35.4-2.2-48.8-14.2c-8.7-7.8-16.7-24.2-18-36.4
							c-0.8-8.9-0.7-9.7,4.2-14.4c5.3-5.5,10-6.3,15.9-3.2c5.3,2.8,7.7,6.5,7.8,12.2c0.2,7,5.5,18,10.9,22.2
							c5.7,4.5,16.4,7.5,21.4,6.2c2-0.5,7.2-2.5,11.5-4.5c4.7-2.2,9.3-3,11.9-2.3c2.2,0.5,8,5.8,13,12
							c15.9,19.5,35.4,26.9,58.3,21.7c26.4-5.8,43.4-20.7,43.4-37.7c0-6.2,3.8-14.2,7.5-15.7c17.9-6.8,49.4,18.4,64.3,51.4
							c9.9,21.7,12,34.6,12.9,77.6c1.2,50.9-2.3,104.9-10.7,167.1c-2.5,18.7-3.2,21.4-7.3,25.4
							C1435.3,1064.9,1429.4,1064.7,1422.9,1058.2z"/>
						<path class="st13" d="M1593.7,1058.9c-4-4.2-4.8-7-7.3-25.6c-11.9-85.3-14.7-187.5-6.3-219.9c4.3-17.5,11.5-33.1,20.9-46.3
							c15-21.2,38.9-34.9,51.9-30.1c3.7,1.5,7.5,9.5,7.5,15.7c0,16.9,16.9,31.7,42.9,37.7c23.5,5.5,45.4-2.8,59.8-22.9
							c7.5-10.5,12.5-13,19.7-10c15.5,6.3,19,7.2,25.7,5.3c3.7-1,8.9-3.5,11.4-5.5c5.3-4.2,10.7-15.2,10.9-22.2
							c0.2-5.7,2.5-9.3,7.8-12.2c5.8-3.2,10.5-2.3,15.9,3.2c4.8,4.7,5,5.5,4.2,14.4c-1.3,12.2-9.3,28.6-18,36.4
							c-13.4,12-33.1,17.9-48.8,14.2l-8-1.7l-9.5,8.3c-18,16.2-43.2,24.9-65.5,22.5c-32.2-3.5-59.6-20-71.3-43.2l-3.3-6.3l-5.8,6.8
							c-8.2,9.5-15.4,23.7-19.9,38.6c-3,10.7-3.7,17.9-4.3,49.3c-1.2,49.9,2.3,101,12.2,179c1,8.2,0.8,9-4,13.7
							C1605.7,1064.7,1599.9,1064.9,1593.7,1058.9z"/>
					</g>
				</g>
			</g>
		</g>
		<g id="Capa_11">
			<text transform="matrix(1 0 0 1 266.3837 505.0921)" class="st4 st5 st11">1958</text>
		</g>
		<g id="Capa_12">
			<g>
				<g transform="translate(0.000000,1170.000000) scale(0.100000,-0.100000)">
					<path class="st14" d="M4368,3796.9c-1.8-1-4.2-3.1-5.3-4.7c-4.1-5.9-3.8-9.5,8.1-68.5c6.9-33.9,11.5-55.1,12.6-57.4
						c2.6-5.2,6.6-7.7,12.8-8.1c8.4-0.6,14.1,3.5,16.2,11.8c1,3.7,0.4,7.8-9.5,57.1c-11.4,57.2-12.4,61.7-15.2,65.6
						C4383.8,3798.3,4374.5,3800.3,4368,3796.9z"/>
					<path class="st14" d="M4004.5,3778.1c-9.8-3.2-14.1-13.9-9.4-23.8c1.1-2.2,38.2-38.2,113.1-109.5
						c61.2-58.4,112.8-107.5,114.6-109.1c3.9-3.3,4.2-2.3-6.4-16.9c-26.4-36.1-45.2-78.6-52.9-120c-4-21.5-5-32.5-5-56.8
						c0-24.4,1-35.4,5-56.8c5.8-30.7,19.8-67.6,35.7-94.1c14.1-23.4,28.5-41.9,46.7-60.1l11.2-11.1l-108-103.4
						c-71.9-68.7-108.6-104.4-109.6-106.6c-6.6-13.9,7.8-28,21.3-20.7c1.9,1,52.1,48.5,111.7,105.5c59.6,57.1,109,103.8,109.6,104
						s5-2.3,9.6-5.3c42.3-28.5,92.8-46.4,142.8-50.4c17.9-1.4,18.4-1.5,18.9-3.9c0.3-1.1,9-54.7,19.5-119.2
						c10.4-64.5,19.4-119.1,19.9-121.2c1.4-5.3,7.1-11.3,12.3-12.7c9.5-2.5,18.4,3.8,20.4,14.4c0.4,2.2-5.8,42-18.8,122.2
						c-10.6,65.5-19.2,119.2-18.9,119.6c0.2,0.3,3.9,0.8,8.2,1.2c39.6,3.2,86.9,19.1,124.7,41.8c25,15,37.1,24.6,60.2,47.7
						l17.5,17.4l2.1-1.5c1.2-0.9,10.7-8.9,21.4-17.8c63.3-53.3,191-160.1,193.4-161.8c8.4-5.9,20.4-3.3,24.7,5.2
						c3.7,7.1,1.5,15.5-5.5,22.2c-2.2,2.1-40.5,34.3-85.1,71.7c-122.6,102.6-130.3,109.1-130.3,110.1c0,0.5,2.3,4.8,5.2,9.7
						c15.1,24.7,26.4,51.9,33.9,80.4c10.4,39.8,11.9,86.5,4.1,128.5c-6.9,37.9-23,77-44.9,110l-5.4,8.1l2.4,2.3
						c1.4,1.4,61.3,52.2,133.2,113.1c72,60.9,131.7,112,132.9,113.6c5.7,8.1,2.6,19-6.6,23.2c-4.8,2.3-8.3,2.2-13.2-0.3
						c-3-1.6-254.1-213-266.2-224.2l-2.5-2.3l-14.2,13.9c-15.1,14.8-25.9,23.9-40,33.5c-31.1,21.3-61.8,35.2-101,45.7
						c-27.7,7.4-74.9,10.8-104.6,7.5c-30.2-3.4-51.6-8.5-79.7-19c-35.4-13.3-69.4-34.4-97.3-60.2l-5.3-4.9l-4.3,3.9
						c-2.3,2.1-53.7,50.9-114,108.4c-60.3,57.5-111.3,105.5-113.2,106.6C4014.6,3778.2,4008.2,3779.2,4004.5,3778.1z M4494,3613.4
						c58.6-6.5,115.4-32,156.5-70.4c19.9-18.8,31.4-32.1,44.8-52.4c45.8-69.5,57.1-155.2,30.8-234c-10.6-31.8-26.8-60.9-48.2-86.9
						c-9.4-11.5-31.8-33.4-42.9-41.9c-62.7-48.4-140.8-67.9-220-54.9c-28.2,4.6-60.5,15.7-85.2,29.3c-14.8,8.1-35.6,22.1-38.2,25.5
						c-1.2,1.5-4.1,4.1-6.8,5.5c-7.9,4.5-32.6,29.5-44.1,44.6c-12.4,16.5-26.6,40.9-33.9,58.6c-14.9,36-21.4,68.3-21.4,106
						c0.1,40.5,8.3,77.6,25.5,114.8c7.8,16.7,24,42.3,36.2,56.9c9.8,11.9,30.8,32.4,41.6,40.8c44,34.2,94.4,54.4,147,58.9
						c6.2,0.5,12.9,1.2,14.9,1.4C4457,3615.7,4481.8,3614.7,4494,3613.4z"/>
					<path class="st14" d="M4432.7,3596.9c-15.2-1.6-19.3-3.2-21.6-7.9c-4.1-8.6,1.8-15.9,12.7-15.8c8.2,0.1,33,3.2,35.3,4.4
						c5,2.6,6.9,10.1,4.2,15.4C4460.4,3598.8,4455.9,3599.4,4432.7,3596.9z"/>
					<path class="st14" d="M4371.4,3581.5c-68.7-36-120.8-89.9-153.8-159.4c-6.7-14-9.9-22.1-9.9-24.9c0-6.1,5.9-11.3,11.9-10.5
						c4.9,0.6,8,3.9,11.2,11.3c3.7,9,15,31.3,20.3,40.4c31.7,53.9,74,93.7,132,124.5c12.5,6.6,14.9,9,14.9,15.2
						c0,2.7-0.6,4.1-3.1,6.5c-2.6,2.6-3.7,3.1-7.4,3.1S4381.1,3586.6,4371.4,3581.5z"/>
					<path class="st14" d="M4574.7,3445.9c-1.7-0.5-4.5-1.9-6.2-3.2c-9-6.8-130-112.7-132.4-115.9c-3.2-4.1-5.7-10.4-5.7-14.3
						c0-1.4,1.1-4.5,2.5-7c2.5-4.9,91.5-106.3,95.3-108.9c4.1-2.7,9-3.2,14-1.4c6.4,2.2,134.5,105.9,137,110.9
						c0.9,1.8,2,5.8,2.3,8.7c0.6,5.1,0.5,5.7-2.3,9.9c-1.6,2.5-6.9,8.6-11.5,13.5c-4.7,5-19.2,20.7-32.3,34.8
						c-15.4,17-24.7,26.4-26.9,27.4c-13.7,6.5-27.5-7.1-21.2-20.7c1-2,13.7-16.6,28.9-33.2c15-16.2,27.1-29.9,26.8-30.3
						c-1-1.6-102.6-83.5-103.6-83.5s-71,78.7-71,79.9c0,0.4,27.6,24.7,61.4,54c44.1,38.4,61.9,54.5,63.1,56.9
						c4.5,8.9-0.2,19.8-9.8,22.5C4579.2,3447.1,4579,3447,4574.7,3445.9z"/>
					<path class="st14" d="M4129.5,3500.9c-2.1-1.2-41.7-33.7-87.9-72.4c-103.4-86.5-96-80.1-98.2-84.5c-3.9-7.6-0.7-17.3,6.7-20.9
						c4.1-1.9,11.1-1.8,14.8,0.2c3.6,2,180.6,149.9,184.2,154c6,6.9,4.7,17.7-2.9,23.4C4142.3,3503.3,4134.2,3503.5,4129.5,3500.9z"
						/>
					<path class="st14" d="M4034.9,3347.7c-1.4-0.3-3.8-1.2-5.1-1.9c-3.2-1.6-83.7-70.3-86.8-74c-6.8-8-4.5-19.3,4.9-24.1
						c4.7-2.4,9.7-2.3,14.8,0.4c1.7,1,22,17.9,45.1,37.6c46.2,39.4,46.2,39.4,45.5,48.1C4052.4,3343.3,4043.9,3349.8,4034.9,3347.7z
						"/>
				</g>
			</g>
		</g>
		<text transform="matrix(1 0 0 1 243.6743 1079.6285)" class="st10 st8 st9">15 de mayo</text>
		<line class="st12" x1="290" y1="1016.6" x2="290.1" y2="1057.3"/>
		<line class="st12" x1="290.4" y1="1165.4" x2="290.4" y2="1206"/>
		<rect x="199.4" y="1094.5" class="st3" width="183.3" height="54"/>
		<text transform="matrix(1 0 0 1 210.6186 1104.6971)" class="st4 st5 st6">Sputnik III orbita llevando </text>
		<text transform="matrix(1 0 0 1 225.1186 1122.6971)" class="st4 st5 st6">una gran variedad de </text>
		<text transform="matrix(1 0 0 1 214.1186 1140.6971)" class="st4 st5 st6">instrumentos científicos.</text>
		<text transform="matrix(1 0 0 1 246.4139 1223.3984)" class="st7 st8 st9">27 de mayo</text>
		<line class="st12" x1="290" y1="1279.7" x2="290.1" y2="1320.4"/>
		<rect x="199.4" y="1359.8" class="st3" width="183.3" height="54"/>
		<text transform="matrix(1 0 0 1 213.9106 1369.9724)" class="st4 st5 st6">Quinto intento fallido de </text>
		<text transform="matrix(1 0 0 1 260.9106 1387.9724)" class="st4 st5 st6">Vanguard </text>
		<g>
			<text transform="matrix(1 0 0 1 247.1624 1346.726)" class="st7 st8 st9">26 de junio</text>
		</g>
		<line class="st12" x1="290.8" y1="1403" x2="290.8" y2="1443.7"/>
		<g id="Capa_14">
			<g class="st0">
				<g transform="translate(0.000000,1170.000000) scale(0.100000,-0.100000)" class="st15">
					<path class="st10" d="M4259.9,1178.7c-7.3-5.2-23.2-15.4-24.1-15.5c-2.1-0.4-7.9-7.5-8.4-10.5c-0.3-1.7-0.1-5.6,0.4-8.6
						c1.1-6.4,1.6-7.2,29.1-41c22.9-28.1,23-28.3,22.7-29.2c-0.1-0.3-1.9-1.8-3.9-3.1c-2-1.3-3.5-2.8-3.4-3.2
						c0.1-0.5-0.4-0.7-0.9-0.4c-1.3,0.5-7.3-4.4-8.1-6.5c-0.4-0.8-1.1-1.3-1.6-1c-0.5,0.2-2.1-0.5-3.4-1.8c-1.3-1.2-2.5-2.3-2.8-2.3
						c-1.6-0.7-5.3-3.8-5.2-4.5c0.1-0.4-0.2-0.7-0.6-0.7c-1.1,0.1-14.6-10.5-15.8-12.2c-0.3-0.5,0-0.5,0.6,0
						c0.5,0.5,1.1,0.7,1.1,0.4c0-0.3-0.8-1.1-1.7-2c-1.5-1.1-1.8-1.1-1.3,0c0.3,0.8-0.5,0.3-1.8-1.2c-1.3-1.4-2.7-2.6-3.2-2.7
						c-0.8-0.1-12.9-11.4-20.3-18.9c-1.7-1.7-4.5-5.1-6.1-7.6c-1.7-2.6-2.7-3.6-2.1-2.4c0.7,1.7,0.4,1.6-1.5-0.7
						c-5.7-6.6-7.7-9.6-6.9-10.3c0.4-0.5,0.2-0.7-0.4-0.4c-1.5,0.5-7-8.6-10.3-17.1c-2-4.9-2.5-7.6-1.9-10.7
						c0.6-3.6,8.9-20.3,21-42.7c1.3-2.4,4.6-8.8,7.3-14.1c2.7-5.3,5.9-11.5,7.3-14.1c1.4-2.4,5.6-10.6,9.5-18.1
						c9.9-19.6,14.1-27.5,16.9-32.7c2.3-4.1,5.9-11.1,25.3-48.6c6-11.6,16.2-31.4,21.6-41.6c1.6-3.2,2.9-5.9,2.7-6.3
						c-0.3-0.2-9.7-5.8-21-12.2c-16.5-9.6-21-12.5-22.7-15.3c-2.5-3.8-2.1-9,0.9-12.7c1-1.2,1.9-3.2,2.2-4.5
						c0.4-2.5,128-236.9,130.3-239.5c2.2-2.5,6.8-4,10.3-3.4c2.2,0.4,3.9,1.6,5.9,4.4c2.6,3.7,2.7,4.3,1.6,8.5
						c-0.7,2.4-29.7,56.5-64.3,120.1c-34.6,63.7-63.1,116.2-63.2,116.8c-0.1,0.9,25,15.9,29.4,17.5c1.4,0.5,2.6-1.4,9.7-15.3
						c2.7-5.3,5.9-11.5,7.3-14.1c1.3-2.4,4-7.6,5.9-11.4c1.8-3.7,4.6-9.1,6.1-11.8c1.4-2.7,3.6-7,4.9-9.5
						c1.2-2.5,7.4-14.4,13.6-26.3c6.3-12,13.7-26,16.2-31.3c2.7-5.3,6-11.5,7.4-14.1c1.3-2.4,4.6-8.8,7.3-14.1s5.6-11,6.6-12.7
						s5.3-9.9,9.5-18.1c4.3-8.3,10.4-20.3,13.9-26.8c3.4-6.4,9.3-17.9,13.2-25.4c3.8-7.5,10.1-19.7,14.1-27.2
						c3.9-7.4,8.6-16.4,10.4-20c1.8-3.5,4.6-9,6.4-12.2c1.7-3.3,6.6-12.6,10.8-20.9c4.2-8.3,8.8-17,10.1-19.5
						c1.4-2.4,4.1-7.5,6-11.2c4.1-8.1,11.7-15.4,17.8-17.4c7.9-2.6,75.4,6.6,106.9,14.5c22.1,5.6,58.5,17.7,73.8,24.6
						c3.8,1.6,9,3.9,11.5,4.8c2.6,1,6.4,2.8,8.7,3.9c2.3,1.1,7.8,3.9,12.3,6c14.1,6.9,36.2,19.1,46,25.5c1.5,1,6,4,10.2,6.7
						c7.4,4.8,12.9,8.5,23.5,16c7.8,5.6,26.1,19.6,27.3,20.9c0.6,0.6,2.3,2.2,3.9,3.3c4,3.1,6.9,5.5,9.4,7.7
						c1.2,1.1,5.4,4.9,9.4,8.4c6.2,5.5,17.4,15.9,29.9,27.8c1.6,1.6,6.7,6.9,11.3,11.7c4.5,4.8,9.3,9.9,10.6,11.2
						c5.5,5.5,27.7,31.3,36.7,42.8c15.5,19.6,19.3,24.8,33.9,45.1c20.2,28.4,20.2,28.8-5,54.4c-16.5,16.8-32.8,33.3-43.1,43.6
						c-7.7,7.7-38.9,39.4-50,50.8c-2.6,2.7-11.4,11.6-19.6,19.9c-20.7,21-26.7,27-33.2,33.9c-3.2,3.3-6.6,6.5-7.6,7
						s-1.8,1.4-1.9,1.9c-0.1,0.9-10.4,11.4-21.6,22.3c-2.9,2.9-5.7,5.8-6.2,6.5s-2.4,2.7-4.2,4.3s-6.7,6.7-10.8,11
						c-4.2,4.4-8.6,8.7-9.7,9.7c-1.2,0.9-2.2,2.1-2.3,2.7c-0.1,0.6-0.9,1.4-1.8,2c-0.9,0.5-5.2,4.6-9.5,9.2
						c-4.3,4.5-10.4,10.9-13.7,14.1c-5.3,5.3-8.9,9-14.2,14.4c-4.2,4.4-8.6,8.8-13.7,14c-3.1,3-6.8,6.9-8.4,8.7
						c-1.6,1.7-3.4,3.3-4.1,3.6c-2.2,0.9-1.3,3.1,3,7.1c12.4,11.6,16.8,15.5,17.6,15.6c1.1,0.2,1.3,0,35.7-35
						c12.7-13,13.3-13.5,50.6-51.2c15-15.1,30-30.4,33.4-33.9s10-10.1,14.4-14.6c4.4-4.6,9.4-9.7,11.1-11.3s6.7-6.7,11.1-11.3
						c9.7-9.8,13.2-12.5,17.2-12.6c2.4,0,3.6,0.6,5.6,3c4.8,5.5,2.8,9.6-11.1,23.3c-1.3,1.4-4.8,4.8-7.6,7.8
						c-9.5,9.6-13.4,13.5-28.7,29c-8.3,8.4-16.9,17.2-19.3,19.5c-2.3,2.4-8.7,8.8-14.2,14.4c-5.6,5.6-12.5,12.6-15.5,15.7
						c-14.6,14.8-37.8,38.3-43.5,44c-3.4,3.5-7.6,7.7-9.2,9.3c-1.7,1.6-5.4,5.4-8.3,8.5c-3.1,3-8,8-11,11.2
						c-7.9,8.1-14.4,8.7-19.4,1.8c-1.2-1.8-5-5.6-8.4-8.6c-3.5-3.1-8.8-7.8-11.8-10.6c-3.1-2.9-5.8-5.2-6.2-5.3
						c-0.7-0.1-2.7,1.8-13.3,12.6c-2.5,2.5-7.2,7.4-10.4,10.6c-3.3,3.3-8.9,9-12.5,12.7c-3.7,3.7-9.3,9.5-12.5,12.7
						c-3.3,3.3-7.8,7.9-10.1,10.1c-2.3,2.4-6.6,6.7-9.6,9.7c-3,3.1-7.3,7.5-9.5,9.7c-2.3,2.4-6.8,6.9-10,10.2
						c-3.3,3.3-7.8,7.9-10.1,10.1c-2.3,2.4-6.6,6.7-9.6,9.7c-7.3,7.4-11.4,11.7-19.3,19.8c-3.7,3.7-7.5,7.3-8.3,7.9
						c-2.8,1.5-11-0.4-14.9-3.6l-3.5-2.9l1.1-8.1l1.1-8.2l5.7-5.7c3.1-3.1,10.2-10.3,15.8-16s12.3-12.4,14.9-15.1s9.3-9.5,14.9-15.3
						c5.6-5.7,12.9-13,16.1-16.2c3.3-3.2,8.3-8.3,11.3-11.3c3-3.1,9.2-9.3,13.7-14c4.6-4.6,12.9-13,18.5-18.7s14.4-14.6,19.6-19.9
						c5.2-5.3,12-12.2,15.1-15.4c8.2-8.4,43.8-44.5,51.1-51.7c4.9-4.9,5.9-6.4,5-7.3c-0.7-0.6-1.4-1.1-1.7-1.2
						c-0.3,0-2.7-2.9-5.3-6.4c-4.4-5.8-13.4-15.7-20-22.1c-12-11.7-13.9-13.4-23.5-21.4c-9.2-7.7-26.1-20.1-36-26.5
						c-3.6-2.4-8.3-5.3-10.2-6.7c-2-1.3-4.4-2.7-5.4-3.3c-1-0.5-3.1-2.4-4.5-4.2c-4.8-6.2-1-14.7,6.9-15.3
						c3.8-0.3,10.3,3.2,29.3,16.1c9.9,6.7,29.6,21.3,30.9,23c1.5,1.8,3.5,1.6,3.8-0.3c0.1-0.7,1.5-2.5,3.1-4.1
						c5.4-5.7,5.4-6.3-1-12.2c-7.5-7-10.3-9.5-13.6-12c-12.9-10.1-16.7-13.1-17.4-13.8c-2-2.1-28.6-19.1-38.3-24.5
						c-24.8-13.8-50.1-24.6-80.8-34.5c-10.7-3.5-13.4-6.3-12.4-12.7c0.9-5.1,2.4-6.7,7.2-7.8c3.8-0.8,4.9-0.6,13.7,2.3
						c10.3,3.4,38.5,14,45.2,17c7.9,3.5,23.3,10.9,28.8,13.8c10.3,5.6,16.8,9.3,31,18.3c8.5,5.4,31.9,22.5,33.4,24.4
						c0.7,0.9,1.7,1.8,2.1,1.8c0.7,0.1,2.5,1.7,13.2,11.5c3.4,3,6.6,5.7,7.1,5.7c0.5,0.1,1.5-0.9,2.4-2.3c0.8-1.4,2.8-4.1,4.4-6
						c4.9-5.7,28.1-34.2,33.5-41.2c2.9-3.6,5.8-7.1,6.7-7.9c0.9-0.6,1.7-1.6,1.7-2c0.1-0.5,3.2-4.4,6.9-8.8c5.1-5.9,7.7-8.3,10.3-9
						c4.4-1.2,4.8-1.2,8.6,1.6c3.6,2.5,4.8,7.2,3,12c-0.7,1.6-4.5,7-8.6,12.1c-4.1,5-9.5,11.6-11.9,14.8c-2.5,3.1-4.9,6.1-5.3,6.5
						c-0.6,0.5-2.3,2.6-4,4.8s-4.4,5.5-6,7.4s-4.1,5-5.7,6.9c-1.5,1.9-7,8.7-12.1,14.9l-9.4,11.5l6.4,7.2c8.3,9.4,11.1,13,20.8,26.3
						c4.4,6,8.5,10.9,9.1,10.8c0.5-0.1,5.9-5,11.7-10.9c5.9-5.9,12.8-12.8,15.4-15.5s5.6-5.6,6.6-6.7c5.9-6.2,11.4-11.9,17.8-18.2
						c4-4,9.6-9.6,12.5-12.7c2.9-3.1,6.1-6.1,7-6.6c1-0.5,1.8-1.4,1.9-1.9s3.5-4.3,7.6-8.3c4-4.1,8.3-8.3,9.5-9.5
						c1.1-1.2,3.6-3.6,5.4-5.4c1.8-1.9,4.1-4.2,5-5.2c4.2-4.4,8.6-8.8,13.7-14c3.1-3,6.8-6.9,8.3-8.5c1.7-1.6,5.4-5.4,8.3-8.5
						c3-3.1,7.9-8,10.8-11c3-3.1,8-8.1,11.3-11.4c3.2-3.2,8.3-8.4,11.3-11.4c2.9-3.1,9.3-9.5,14.2-14.4c4.9-4.9,9.9-10.1,11.2-11.6
						l2.3-2.7l-13.3-18.4c-7.4-10.1-16.8-22.7-21-27.8c-4.2-5.3-8.2-10.4-9-11.4c-3.1-4.3-6.8-8.3-7.1-8.1c-0.1,0.2-3.8,4.1-7.9,8.8
						c-20.3,22.8-22.4,24.8-26.7,25.5c-10.5,1.6-15.5-10.1-7.6-18.4c1.7-1.7,3-3.3,3.1-3.5c0-0.3,2.5-2.9,5.5-6.1
						c3-3.1,5.4-5.8,5.5-6.1c0-0.3,1.3-1.8,2.8-3.2c1.4-1.4,3.5-3.8,4.5-5.2s3.4-3.7,5.1-5c1.7-1.4,2.8-2.8,2.4-3.1
						c-0.4-0.4-4.9-5.2-9.8-10.6c-20.4-22.6-45.7-46.8-69.3-66.3c-10.1-8.3-39.3-29.9-48.3-35.8c-16.6-10.7-21.5-13.7-34-20.7
						c-3.7-2.1-8.4-4.8-10.4-5.9s-5.6-3-8.2-4.1c-2.5-1.2-9.5-4.5-15.5-7.4c-19.1-9.1-46.3-19.7-64.4-24.9c-7-2.1-16.1-4.7-20.2-6
						c-10.3-3-58.1-11.7-74.2-13.4c-20.7-2.2-23.1-2.1-24.2,0.2c-0.9,1.9-12.2,23.9-28.9,56c-4.1,7.7-8.7,16.7-10.4,20
						c-1.6,3.3-4.1,8-5.5,10.4c-1.3,2.5-4.5,8.8-7.2,14.1c-2.7,5.3-5.9,11.6-7.3,14.1c-1.3,2.5-4.6,8.8-7.3,14.1s-5.6,11-6.6,12.7
						s-4.9,9.3-8.8,16.8c-3.8,7.5-10.1,19.5-13.9,26.8s-8.8,16.9-11,21.3c-2.2,4.6-5.2,10.3-6.6,12.7c-1.3,2.5-3.7,7-5.3,10
						l-2.8,5.5l15.9,2.7c16.9,2.8,26.2,5.8,41.2,13.1c10.3,5,21.5,11.5,24.9,14.5c5.1,4.5,4.3,12.5-1.6,15.9
						c-3.8,2.3-6.6,1.9-12.2-1.5c-15.2-9.3-28-15.3-40.1-18.8c-9-2.6-33.7-6.5-37.1-5.6c-1,0.2-4,4.9-7.9,12.3
						c-3.4,6.6-8.9,17.3-12.4,23.8c-3.4,6.5-9.3,18-13.2,25.4c-3.8,7.5-8.5,16.2-10.3,19.5c-1.8,3.2-3.4,6.3-3.5,7
						c-0.1,0.6,3.7,3.3,8.3,6.1c10,5.9,11.9,8.5,10.8,14.9c-0.6,3.5-1.4,4.7-4,6.6c-4.4,3-8.8,2.3-18.2-3.2c-4-2.2-7.5-3.8-7.7-3.5
						c-0.3,0.4-2.7,4.9-5.4,10.2s-5.9,11.6-7.3,14.1s-4.6,8.8-7.3,14.1s-5.9,11.6-7.3,14.1c-2.4,4.4-9,17.1-23.5,45.4
						c-4.1,8-8.5,16.6-9.9,19.1c-3.1,5.6-8.7,16.4-14.1,27.2c-2.2,4.6-5.3,10.3-6.6,12.7c-7.6,13.8-14.2,27.3-13.7,27.9
						c0.2,0.4,3.7,1.5,7.6,2.6c3.9,1,7.9,2,9,2.5c1,0.4,3.7,1.1,6,1.5c2.8,0.6,3.9,1.1,3.3,1.7c-0.5,0.6-0.1,0.9,1.2,0.7
						c1.1-0.2,4.5,0.9,7.4,2.2c3,1.4,6.5,2.8,8,3c1.4,0.2,2.3,0.8,2,1.2c-0.4,0.4,0.5,0.7,1.9,0.5c1.6-0.1,2.5,0.2,2.4,0.9
						c-0.1,0.6,0.1,1,0.6,1c1.2-0.2,11.4,4.2,18.3,7.8c3.5,1.9,7.4,3.6,8.4,3.8c1.2,0.2,1.9,0.8,1.8,1.5c-0.1,0.6,0.1,0.9,0.5,0.6
						c0.4-0.2,2.2,0.5,4,1.6c1.8,1.2,4.2,2.5,5.5,2.9c1.9,0.7,12.2,6.4,23.3,12.7c1.6,0.9,2.5,1.9,2.1,2.3c-0.5,0.3-0.3,0.4,0.4,0.2
						c0.7-0.3,3.2,0.7,5.5,2.2c2.3,1.6,4.7,2.9,5.5,3s1,0.7,0.5,1.3s-0.4,0.7,0.3,0.4c0.7-0.3,3.1,0.8,5.4,2.4
						c2.4,1.6,4.7,3.1,5.3,3.3c0.5,0.3,2.4,1.4,4,2.5c1.7,1.1,5.7,3.6,9,5.8c3.3,2,5.6,4.1,5.2,4.6c-0.4,0.4-0.2,0.6,0.4,0.3
						c1.3-0.5,5.7,2.3,5.5,3.5c-0.1,0.5,0.4,0.7,0.9,0.4c0.6-0.3,2.9,1,5.1,2.7c2.3,1.8,4.7,3.4,5.4,3.5c0.8,0.1,1,0.7,0.5,1.3
						c-0.5,0.5-0.4,0.7,0.3,0.4c1.3-0.5,27.1,18.1,26.1,18.9c-0.4,0.3-0.3,0.4,0.2,0.2c1.1-0.6,12.5,8.8,11.8,9.7
						c-0.4,0.5-0.2,0.7,0.5,0.4c1.3-0.6,7.3,4.1,8.2,6.4c0.4,0.8,1.1,1.3,1.6,1c0.6-0.2,1.7,0.4,2.4,1.3c0.8,0.8,2.1,2,3,2.5
						c1,0.6,1.2,1.4,0.8,1.9c-0.5,0.7-0.4,0.8,0.3,0.5c1.1-0.4,12.5,8.9,12.3,10c0,0.3-0.5,0.1-1.1-0.4s-0.7-0.4-0.5,0.4
						c0.3,0.6,1,1.1,1.5,0.9c0.9-0.4,11.2,9,11.1,10c0,0.2-0.5,0-1.1-0.5s-0.7-0.4-0.4,0.3c0.3,0.6,1.1,1.1,1.9,0.8
						c0.8-0.2,1.5,0.1,1.4,0.6c-0.1,0.6,0.6,1.5,1.5,2.1c5.8,4,23.4,28.3,24.9,34.5c2.5,9.7,0,17.9-7.4,25.3
						c-3.2,3.3-15.6,6.7-22.8,6.4c-6.7-0.3-29.5-6.5-28.4-7.7c0.4-0.4-0.4-0.5-1.7,0c-1.4,0.5-2,0.4-1.6-0.1c0.5-0.6-0.2-1-1.9-1.1
						c-1.4,0-5.5-1.4-9.1-3c-3.5-1.6-6.9-2.6-7.4-2.4c-0.6,0.2-0.7,0-0.2-0.6c0.7-0.7,0.2-1-1.6-0.8c-1.7,0.1-2.5-0.2-2.4-1
						c0.1-0.6-0.2-0.9-0.8-0.7c-0.5,0.2-3-0.6-5.3-1.8c-2.5-1.2-5.8-2.7-7.3-3.3c-1.7-0.5-5.1-2.2-7.8-3.7c-2.7-1.5-5.6-2.9-6.5-3.1
						c-1-0.2-3.9-1.8-6.8-3.7c-2.8-1.9-6.1-3.6-7.3-3.8c-1.2-0.2-1.9-0.7-1.5-1.1s0-0.7-0.7-0.5c-1.8,0.3-12.8-6-11.8-6.8
						c0.4-0.3,0.2-0.4-0.8-0.2c-0.8,0.2-3.5-1.2-5.8-2.9c-2.3-1.8-4.6-3-5.1-2.8s-2.6-0.9-4.6-2.6c-4-3-9.8-5.1-10.1-3.5
						c-0.1,0.5-12.1,15.8-26.7,34.1c-19.2,23.9-27.6,33.7-30.2,35C4270,1181.6,4263.6,1181.3,4259.9,1178.7z M4270.3,1142.4
						c2.6-3.1,6.7-8.3,9.5-11.7c2.6-3.3,6.2-7.8,7.9-10c1.7-2.2,4.4-5.5,5.9-7.4s3.9-4.9,5.2-6.5c8.6-10.7,9.4-11.9,8.6-14.2
						c-0.4-1.2-1.1-2.1-1.7-1.9s-2.8-0.8-5.1-2.2l-3.9-2.6l-2.6,3.2c-1.5,1.7-3.3,4-4.1,4.9s-9.4,11.6-19.2,23.7
						c-9.8,12.1-17.9,22.4-17.9,22.7c-0.2,1,9.7,7.6,11.4,7.7C4265.1,1148,4267.8,1145.5,4270.3,1142.4z M4476.4,1144.5
						c0.4-2.1-9.2-16.5-15-22.6c-2.7-2.9-4.6-5.5-4.2-5.8c0.5-0.4,0.3-0.4-0.4-0.3s-2.3-1.1-3.8-2.9c-1.4-1.8-2.8-3.4-3-3.5
						c-1.5-0.4-10.5-9.6-9.9-10.1c0.4-0.2,0.3-0.4-0.2-0.4c-1.1,0.1-6.7-3.9-6.6-4.8c0-0.3,0.5-0.1,1.1,0.4s0.7,0.4,0.5-0.4
						c-0.3-0.6-1-1.1-1.6-0.8c-0.5,0.2-3-1.4-5.5-3.6c-4.6-4-6.3-5.4-14.9-12.3c-2.9-2.3-5.4-4.5-5.6-4.8s-0.9-0.8-1.6-1.2
						c-0.8-0.2-4-2.6-7.4-5.4c-3.3-2.7-6.6-5.1-7.3-5.2c-0.8-0.1-1.6-0.8-1.8-1.5c-0.4-0.8-0.2-0.8,0.6-0.2c0.8,0.6,1,0.6,0.6-0.3
						c-0.3-0.6-0.9-1-1.4-0.8c-1.3,0.5-4.8-2.1-5.5-4.1c-0.4-0.8-1.1-1.2-1.7-1c-0.6,0.3-2.7-0.8-4.8-2.2
						c-6.3-4.7-20.9-14.6-21.9-14.7c-0.6-0.1-0.6-0.6-0.1-1.2s0.4-0.7-0.3-0.4c-0.6,0.3-3-0.7-5.1-2.2c-2.2-1.5-4.5-2.7-5.1-2.8
						c-0.6-0.1-0.7-0.5-0.3-1c0.5-0.5,0-0.7-1-0.5c-1.3,0.3-1.5,0-0.8-0.8c0.6-0.7,0.6-1,0-0.7c-1.4,0.6-10.7-4.6-9.6-5.3
						c0.4-0.3,0.4-0.5-0.2-0.5c-1.5,0.2-9.7-4-9.5-4.9c0.1-0.4-0.2-0.7-0.6-0.7c-1.2,0.1-13-6.3-16.7-9c-1.8-1.4-4.4-2.6-5.7-2.8
						c-1.6-0.3-2.2-0.8-1.6-1.5c0.5-0.6,0.4-0.7-0.3-0.4c-0.6,0.3-2.5-0.4-4.1-1.4c-1.6-1.1-4.6-2.5-6.6-3.2c-2.8-1.1-3.3-1.5-2.1-2
						c1.1-0.6,0.9-0.7-0.7-0.5c-1.2,0.1-3.6-0.7-5.4-1.9c-1.9-1.1-4.2-2.2-5.2-2.4s-1.6-0.7-1.2-1.1c0.4-0.3-0.5-0.7-2-0.6
						c-1.9,0.1-2.3-0.2-1.6-1.1c0.6-0.7,0.6-1-0.1-0.7s-6.9-2-13.9-5c-12.8-5.5-15.7-6.6-25.5-9.4c-2.8-0.8-5.2-1.8-5.4-2.2
						c-0.1-0.5-10.6-2.4-16.5-3c-0.9,0-2.3,1.1-3.2,2.7c-1.5,2.7-1.5,3.1,2.1,8.6c2,3.1,4.1,5.8,4.5,6c1.1,0.3,4.6,5.7,4.4,6.9
						c-0.1,0.6,0.4,1,1.2,0.8c0.6-0.1,2.7,1.4,4.6,3.4c1.8,2,5,5.2,7,7.1c1.9,1.9,3.5,3.7,3.5,3.8s-0.4,0-0.9-0.4
						c-0.4-0.4-0.9-0.5-0.9-0.3c0,0.3,0.8,1.1,1.7,2c1.3,0.9,1.7,1.1,1.4,0.2c-0.6-1.5,10,8.5,10.8,10c0.3,0.6,0.7,0.8,0.7,0.4
						c0.1-0.7,4.8,3.5,6,5.3c0.2,0.3,0.9,0.7,1.3,0.9c0.6,0.2,4.7,3.5,9.4,7.2c4.7,3.8,9,7,9.5,7.1c0.6,0.1,0.6,0.5,0.2,1
						c-0.5,0.5,0,0.7,1,0.5c1.3-0.3,1.5,0,0.8,0.8c-0.6,0.6-0.6,1,0,0.8c1.4-0.6,6.8,3.8,5.7,4.6c-0.5,0.4-0.3,0.4,0.4,0.3
						c0.6-0.3,4.3,1.8,8.1,4.5c7.9,5.9,6.8,6.2,14.8-3.9c4.8-6.1,7.5-8,12.1-8.6c5.4-0.8,10.2,5.4,9.1,11.5
						c-0.5,2.7-1.3,3.9-8.4,13.1c-1.9,2.3-3.4,4.6-3.5,5s1.1,1.2,2.7,1.8c1.6,0.7,2.7,1.5,2.6,2.1s0.1,0.9,0.5,0.6
						c0.4-0.2,1.8,0.3,3.2,1.3l2.4,1.9l5.1-6c5.6-6.9,9.1-9.1,14-9.2c4.8-0.1,7.6,1.5,10.9,5.7c3.9,5,3.7,10.8-0.6,17
						c-1.6,2.4-3.4,5.1-4.1,5.9c-0.8,1.3-0.3,2,2.3,3.7c3.2,2.1,3.8,2.4,6.4,3.1c0.7,0.2,0.8,0.8,0.4,1.3c-0.5,0.6-0.3,0.9,0.6,0.8
						c1.4-0.3,13.3,6,17.2,9.1c1.1,0.9,2.2,1.6,2.4,1.5c0.1-0.1,1.1,0,2.2,0.2c1.2,0.2,1.7,0.7,1.1,1.4c-0.5,0.5-0.4,0.7,0.2,0.5
						c0.5-0.2,4,1.1,7.7,3c3.6,1.9,6.2,3.6,5.7,3.7c-0.5,0.2-0.3,0.2,0.4,0.2c0.7,0,6.1,2.3,12,5.1c5.8,2.9,11.7,5.6,13,6.1
						c1.3,0.4,6.1,2.4,10.7,4.3s9.8,3.8,11.4,4.2c1.6,0.4,2.9,1.1,2.8,1.5s0.5,0.6,1.2,0.5c0.6-0.2,4,0.6,7.3,1.5
						c3.4,1.1,9.9,2.4,14.6,3.2C4474.5,1145.7,4476.2,1145.7,4476.4,1144.5z M4195.9,999.1c0-0.2-0.6-1.1-1.4-1.9
						c-1.3-1.5-1.4-1.4-0.4,0.3C4195,999.3,4195.7,999.9,4195.9,999.1z M4734.5,887.4c3.1-2.9,3.1-3,1.7-5.4
						c-5.7-9.7-30.4-41.4-32.7-41.7c-0.8-0.1-9.2,10.3-8.8,10.8c14.3,14,31.1,32.5,34,37.3C4730.2,890.8,4731,890.7,4734.5,887.4z"
						/>
					<path class="st10" d="M4937.6,563c-2.3-1.6-3.3-3.3-3.8-6.5c-0.7-4.2-0.5-4.5,2.7-8.9c7.7-10.7,149.3-176.7,152.3-178.7
						c5-3.3,10.3-2.1,13.9,2.9c3.1,4.4,3,8.1-0.4,12.7c-3.3,4.4-145.9,172.5-149.7,176.5c-2,2.1-4.8,3.7-6.6,4.1
						C4941.8,565.8,4941.2,565.7,4937.6,563z"/>
					<path class="st10" d="M4896.4,508.7c-2.3-1.6-3.3-3.3-3.8-6.5c-0.6-4-0.5-4.5,2.3-8.5c1.7-2.3,22.4-26.7,46-54.3
						c30.7-35.8,43.8-50.5,45.9-51.2c7.8-3,15.2,3,13.9,11.1c-0.6,3.5-5.6,9.7-43.2,53.9c-23.4,27.5-44,51.5-45.7,53.3
						c-3,3.1-8,5.2-11,4.7C4900.1,511.1,4898.1,510,4896.4,508.7z"/>
					<path class="st10" d="M4608.8,353.9c-3.4-2.2-5.3-8.1-3.8-12c1.2-3,42.1-61.4,45.3-64.6c5.5-5.6,15.7-2.8,17.4,4.7
						c0.5,2.2,0.5,4.9,0,6.3c-1,2.6-41.6,60.8-44.9,64.4c-1.9,1.9-7.4,3.8-9.8,3.4C4612.3,355.9,4610.4,355,4608.8,353.9z"/>
					<path class="st10" d="M4577.6,328c-3.4-2.2-5.3-8.1-3.7-12.1c0.9-2.5,71.8-114.5,76.3-120.5c1.3-1.8,3.5-3.8,4.8-4.3
						c2.8-1.3,9-0.6,11.5,1.3c2.2,1.7,3.7,6.7,3.1,10.3c-0.4,2.6-68.4,110.9-76.5,121.8c-2.2,3.1-4.1,4.5-6.6,5.1
						C4582.2,330.5,4581.4,330.4,4577.6,328z"/>
				</g>
			</g>
			<g>
				<path class="st10" d="M435.9,617c-5.2,0-10.2-1-14.9-3c-4.6-1.9-8.7-4.7-12.2-8.2s-6.3-7.6-8.2-12.2c-2-4.7-3-9.8-3-14.9
					s1-10.2,3-14.9c1.9-4.6,4.7-8.7,8.2-12.2s7.6-6.3,12.2-8.2c4.7-2,9.8-3,14.9-3c5.6,0,10.9,1.2,15.9,3.4
					c4.8,2.2,9.1,5.3,12.7,9.3c0.9,1,0.8,2.5-0.2,3.4s-2.5,0.8-3.4-0.2c-6.4-7.1-15.5-11.2-25-11.2c-18.5,0-33.6,15.1-33.6,33.6
					s15.1,33.6,33.6,33.6s33.6-15.1,33.6-33.6c0-3-0.4-6.1-1.2-9c-0.4-1.3,0.4-2.6,1.7-3s2.6,0.4,3,1.7c0.9,3.3,1.4,6.8,1.4,10.2
					c0,5.2-1,10.2-3,14.9c-1.9,4.6-4.7,8.7-8.2,12.2s-7.6,6.3-12.2,8.2C446.1,616,441.1,617,435.9,617z"/>
				<path class="st10" d="M453,565l-30.8,30.7c-0.9,0.9-2.5,0.9-3.4,0s-0.9-2.5,0-3.4l30.7-30.7c0.9-0.9,2.5-0.9,3.4,0
					C453.9,562.5,453.9,564,453,565z"/>
				<path class="st10" d="M422.2,561.6l30.7,30.7c0.9,0.9,0.9,2.5,0,3.4s-2.5,0.9-3.4,0L418.8,565c-0.9-0.9-0.9-2.5,0-3.4
					C419.8,560.6,421.3,560.6,422.2,561.6L422.2,561.6z"/>
			</g>
			<g>
				<path class="st16" d="M159.6,745.8c-5.2,0-10.2-1-14.9-3c-4.6-1.9-8.7-4.7-12.2-8.2s-6.3-7.6-8.2-12.2c-2-4.7-3-9.8-3-14.9
					c0-5.2,1-10.2,3-14.9c1.9-4.6,4.7-8.7,8.2-12.2s7.6-6.3,12.2-8.2c4.7-2,9.8-3,14.9-3c5.6,0,10.9,1.2,15.9,3.4
					c4.8,2.2,9.1,5.3,12.7,9.3c0.9,1,0.8,2.5-0.2,3.4s-2.5,0.8-3.4-0.2c-6.4-7.1-15.5-11.2-25-11.2c-18.5,0-33.6,15.1-33.6,33.6
					s15,33.5,33.6,33.5s33.6-15.1,33.6-33.6c0-3-0.4-6.1-1.2-9c-0.4-1.3,0.4-2.6,1.7-3s2.6,0.4,3,1.7c0.9,3.3,1.4,6.8,1.4,10.2
					c0,5.2-1,10.2-3,14.9c-1.9,4.6-4.7,8.7-8.2,12.2s-7.6,6.3-12.2,8.2C169.8,744.8,164.7,745.8,159.6,745.8z"/>
				<path class="st16" d="M176.6,693.8l-30.7,30.7c-0.9,0.9-2.5,0.9-3.4,0s-0.9-2.5,0-3.4l30.7-30.7c0.9-0.9,2.5-0.9,3.4,0
					S177.5,692.9,176.6,693.8z"/>
				<path class="st16" d="M145.9,690.4l30.7,30.7c0.9,0.9,0.9,2.5,0,3.4s-2.5,0.9-3.4,0l-30.7-30.7c-0.9-0.9-0.9-2.5,0-3.4
					S145,689.5,145.9,690.4L145.9,690.4z"/>
			</g>
			<g>
				<g>
					<path class="st14" d="M157.5,1013.4c-5.2,0-10.2-1-14.9-3c-4.6-1.9-8.7-4.7-12.2-8.2s-6.3-7.6-8.2-12.2c-2-4.7-3-9.8-3-14.9
						c0-5.2,1-10.2,3-14.9c1.9-4.6,4.7-8.7,8.2-12.2s7.6-6.3,12.2-8.2c4.7-2,9.8-3,14.9-3c5.6,0,10.9,1.2,15.9,3.4
						c4.8,2.2,9.1,5.3,12.7,9.3c0.9,1,0.8,2.5-0.2,3.4s-2.5,0.8-3.4-0.2c-6.4-7.1-15.5-11.2-25-11.2c-18.5,0-33.6,15.1-33.6,33.6
						s15.1,33.6,33.6,33.6s33.6-15.1,33.6-33.6c0-3-0.4-6.1-1.2-9c-0.4-1.3,0.4-2.6,1.7-3s2.6,0.4,3,1.7c0.9,3.3,1.4,6.8,1.4,10.2
						c0,5.2-1,10.2-3,14.9c-1.9,4.6-4.7,8.7-8.2,12.2s-7.6,6.3-12.2,8.2C167.7,1012.4,162.7,1013.4,157.5,1013.4z"/>
					<path class="st14" d="M174.6,961.4l-30.7,30.7c-0.9,0.9-2.5,0.9-3.4,0s-0.9-2.5,0-3.4l30.7-30.7c0.9-0.9,2.5-0.9,3.4,0
						S175.5,960.4,174.6,961.4z"/>
					<path class="st14" d="M143.9,958l30.7,30.7c0.9,0.9,0.9,2.5,0,3.4s-2.5,0.9-3.4,0l-30.7-30.7c-0.9-0.9-0.9-2.5,0-3.4
						C141.4,957,142.9,957,143.9,958L143.9,958z"/>
				</g>
			</g>
		</g>
		<g id="Capa_15">
		</g>
		<g id="Capa_16">
			<g>
				<g transform="translate(0.000000,1170.000000) scale(0.100000,-0.100000)">
					<path class="st10" d="M4099.1,987.2c-10.3-4.2-18.3-8.2-19.9-9.7c-6.1-5.9-5.9-18,0.6-29.2c6.2-10.7,7.4-12.8,19.7-34.6
						c6.6-11.7,13.2-23.3,14.5-25.8l2.6-4.3l-6-2.9c-3.2-1.6-6.2-3.4-6.5-3.9s-0.8-0.7-0.8-0.3c0,0.9-5.8-2.9-6.8-4.4
						c-0.3-0.5-0.9-0.8-1.2-0.7c-1.2,0.4-6.3-2.1-6.3-3c0-0.5-0.3-0.8-0.7-0.7c-1.2,0.4-7-2.3-6.5-3c0.2-0.4-0.1-0.8-0.8-0.8
						c-1.3-0.1-17.9-9.9-16.6-9.9c1.9,0-1.2-2.1-3.4-2.3c-2.6-0.3-18.7-11.1-18.5-12.2c0.2-0.5-0.3-0.6-1-0.4
						c-0.6,0.3-4-1.8-7.5-4.6c-3.5-2.7-7.6-6-9.1-7.2s-2.1-1.9-1.3-1.5c1,0.5,0.9,0-0.4-1.3c-1.1-1.2-2.3-2.1-2.8-2.1
						c-0.6,0-0.2,0.7,0.9,1.4c1,0.8,1.3,1.4,0.8,1.4c-1.5,0-6.2-5.3-5.5-6.2c0.5-0.4,0.3-0.5-0.3-0.2c-1.2,0.8-11.2-9.2-10.3-10.3
						c0.5-0.4,0.1-0.6-0.7-0.4c-1.8,0.4-10.2-12-11.4-17.2c-0.6-2.2-0.8-5.4-0.5-7.2c0.9-4.4,11.5-38.4,14.3-45.5
						c1.2-3.2,4.5-13.1,7.3-22.1c2.7-8.9,6.3-20.7,8.2-25.9c7.3-22.2,10.1-30.7,14.7-45.6c2.8-8.7,6.1-18.6,7.3-22.1
						c2.3-6.2,4.1-11.9,11.9-37.5c4.4-14.1,8.5-26.3,9.8-29.3c2-4.6,3.6-9.9,3-10.8c-0.4-0.5-4.1-2.1-8.4-3.6
						c-4.2-1.5-8.2-3.1-8.7-3.6c-0.5-0.4-4.8-2.1-9.6-3.8c-4.7-1.6-9-3.4-9.5-3.7c-0.6-0.5-3.5-1.7-6.4-2.9
						c-8.6-3.2-12.3-9.9-9-16.4c0.9-1.7,1.5-4,1.5-5.1c0-1.2,1.5-6.3,3.5-11.6c1.8-5.3,7.7-21.9,12.9-37
						c9.2-26.5,18.5-53,40.6-116.3c5.9-16.6,15.3-44,20.9-60.7c12.5-36.6,14.6-41.4,18.5-43.3c3.8-1.8,10.2-0.7,12.9,2.5
						c4.5,5.3,4.2,7-6.9,39.9c-5.6,16.7-11.4,33.5-12.9,37.2s-7.1,19.5-12.4,35.1s-14.7,42.9-20.9,60.5
						c-6.2,17.7-15.2,43.9-20.1,58.1c-4.9,14.3-10,28.6-11.4,31.9c-1.3,3.3-2.5,6.4-2.5,6.9s2.3,1.6,5.1,2.5c2.7,1,7.2,2.7,9.8,3.9
						c2.7,1.2,8.4,3.5,12.7,5l7.9,2.9l3.9-12.6c2.1-7,5-15.5,6.2-18.9c1.3-3.5,5.9-17.3,10-30.8c8.9-28.5,11.4-36.3,12.7-38.9
						c0.9-1.9,14-43.4,16.8-52.9c0.8-2.6,2.9-9.1,4.8-14.4c1.8-5.3,6-17.8,9.1-27.9c3.2-10,7-22.1,8.6-26.9
						c5.7-18,11.6-35.9,15.3-46.6c2.1-6.1,6.1-18.2,8.7-26.9c2.7-8.7,8.2-25.9,12.1-38.2c4-12.3,7.1-22.5,6.9-22.7s0.2-1,0.8-1.7
						c0.6-0.8,2.7-6.3,4.7-12.4c4.7-14.4,10.5-22,18-23.8c6.2-1.5,48.7-1.3,70.4,0.3c18.1,1.3,22.8,1.8,40.2,4.4
						c3.7,0.6,9.3,1.3,12.3,1.8c5.2,0.7,8.6,1.3,21.5,4.4c3.2,0.7,8,1.7,10.6,2.2c2.7,0.6,8.7,2.1,13.5,3.4
						c4.8,1.3,10.5,2.9,12.6,3.5c2.2,0.5,5.2,1.4,6.7,2c1.5,0.7,5.4,1.9,8.6,2.9c5.5,1.6,11.6,3.7,28.3,10c3.9,1.4,8.1,3.3,9.1,3.9
						c1.1,0.8,2.5,1.3,3.2,1.3c0.8,0,4,1.2,7.3,2.8c16.9,8,40.7,19.4,41.9,20.3c0.8,0.5,4.2,2.5,7.7,4.3s9.3,5.2,13.1,7.5
						c3.7,2.2,9.1,5.4,11.9,6.9c2.8,1.6,6.9,4.2,9.1,5.9s5.1,3.7,6.3,4.2c3.3,1.7,18.6,12.1,24.9,16.8c2.9,2.2,10.3,7.8,16.3,12.3
						c22.1,16.7,36.1,28.5,62.9,53.1c20.5,18.8,64.9,65.7,69.9,73.9c3.9,6.5,1.5,16.2-7,27.9c-2.4,3.2-7.2,10.1-10.7,15.4
						c-3.6,5.3-11.6,17.2-18,26.4c-16.1,23.4-37.4,54.6-48.6,71.1c-5.2,7.7-14.5,21.1-20.6,29.9c-6.2,8.8-14.5,21-18.5,26.9
						c-4,6.1-10.9,16.1-15.3,22.5c-26.9,39.3-34.6,50.5-37.3,54.3c-1.6,2.4-6.9,10.2-11.8,17.3c-15.7,23.1-25,36.8-33.1,48.2
						c-4.3,6.2-8.2,11.6-8.6,12.3c-0.8,1.2-0.5,1.5,13.7,11.1c9.1,6.2,11.1,7.1,12.2,6.1c0.7-0.8,5.9-8.3,11.5-16.7
						c5.8-8.5,15.3-22.3,21.1-30.8c5.9-8.5,15.7-22.7,21.7-31.7c10.7-15.8,17-25,45.2-65.8c7.1-10.3,13.1-19.1,13.4-19.7
						c1.6-3.6,17.7-25.7,19.2-26.4c3.2-1.7,7.6-1.2,10.1,1.3c1.9,1.9,2.2,3.1,1.9,6.6c-0.3,3.5-1.6,6.2-7.6,14.7
						c-3.9,5.8-11.8,17.4-17.6,25.9c-5.7,8.5-14.5,21.2-19.6,28.4c-5.2,7.1-10.4,14.7-11.5,16.8c-1.2,2-6.8,10.3-12.3,18.2
						c-5.6,8-15.8,22.9-22.7,33.2c-6.9,10.3-17.6,25.9-23.6,34.6c-6.2,8.7-13.6,19.6-16.5,24.2c-5.8,9-7.4,10.4-12.5,10.4
						c-2.5,0-3.9-0.7-5.7-2.6c-2.1-2.6-29.8-21.4-31.2-21.4c-0.5,0-3.7,4.4-7.2,9.9c-3.6,5.4-8.6,12.9-11.1,16.5
						c-2.5,3.7-14.3,21-26.2,38.4c-21.2,31.1-26.8,39.2-41.5,60.5c-4,5.9-10.6,15.5-14.6,21.4c-5.1,7.4-8.1,11-9.7,11.3
						c-3.7,1-10.5-0.5-14-2.9l-3.2-2.1l0.3-8.4l0.3-8.3l9.6-14.2c5.3-7.8,11.8-17.5,14.6-21.4s8.7-12.6,13.3-19.2
						c4.5-6.6,13.5-19.7,20-29c6.4-9.4,16.1-23.5,21.5-31.5c19.6-28.8,39.9-58.5,53-77.4c31.5-45.6,31-44.7,28.3-44.7
						c-0.7,0-4.4-3.1-8.2-6.7c-14.9-14.1-41.3-33.5-61.2-44.8c-10.9-6.2-32.6-17.1-40.8-20.6c-7.6-3.2-10.2-6.2-10.2-12.2
						c0-3.6,0.5-4.7,2.7-6.6c5-4.3,8.9-3.2,36.7,10.8c6.9,3.5,14.7,7.6,17.3,9.1c11.1,6.6,16.1,9.5,16.7,9.5s7.8-12.2,7.8-13.4
						c0-0.3-2-1.8-4.4-3.4c-2.5-1.5-7-4.7-10-7c-3.1-2.3-5.8-4.1-6.1-4.1c-0.6,0-9.8-5.6-13.6-8.3c-7.2-4.9-38-19.5-51.9-24.5
						c-4.2-1.5-9.6-3.7-12-4.6c-10.8-4.6-40.2-12.5-62.9-16.9c-14.3-2.8-18-4.2-19.6-7.9c-3.3-7.1,1.2-14.2,8.8-14
						c8.8,0.2,62.1,12.6,67.1,15.6c0.8,0.5,4.9,1.8,9.1,3c4.1,1.2,8.7,2.8,10.2,3.5c1.4,0.8,5.8,2.5,9.6,3.8
						c6.2,2.3,11.6,4.7,29.9,13.4c13,6.2,27.8,15,44,26.2c10.6,7.2,13.4,8.5,13.4,6c0-0.5,2.3-4.9,5.1-9.8c8.6-15,27.1-47.9,31.4-56
						c7.8-14.7,9-16.6,11.6-18.2c4.1-2.4,8.3-1.9,11.5,1.2c2.3,2.3,2.8,3.7,2.8,7.3c0,3.9-1.2,6.6-9.1,20.6
						c-5,8.9-9.1,16.4-9.1,16.8s-1.9,4-4.3,8.3c-2.4,4.2-6.6,11.9-9.5,17c-2.8,5.2-6,11-7,12.8s-3.4,5.9-5.1,9l-3.2,5.7l6.6,5.8
						c3.7,3.2,13,12.3,20.9,20.3l14.1,14.4l1.7-2.3c3.6-5,17.7-25.5,32.4-47.1c5.2-7.7,13.2-19.2,17.7-25.8
						c4.5-6.4,11.5-16.5,15.5-22.4c3.9-5.9,8.3-12.1,9.6-13.8c1.3-1.7,8.5-12.1,15.9-23s18.7-27.5,25.2-36.9
						c32-46.5,32.3-47,30.8-49.2c-4.3-6.2-54.1-57.7-55.7-57.7c-0.3,0-2.1,2.6-3.9,5.8c-9.8,16.7-20,31.5-22,32.1
						c-4.4,1.2-8.3,0.6-10.9-1.7c-2.3-1.9-2.7-3-2.6-6.9c0.1-4.1,1.2-6.4,8.4-18.5c9-15,13.8-22.4,15.4-23.5
						c0.7-0.4-0.2-1.8-2.3-3.7c-1.8-1.6-5.8-5.2-8.7-7.9c-9.8-8.9-43.9-35.7-55.6-43.8c-18.9-12.9-36.7-24.4-43.7-28.3
						c-18.5-10.4-23.7-13.2-36.7-19.7c-8.1-4.1-17.2-8.5-20.2-9.7c-3.1-1.2-6.8-3-8.5-3.9c-1.5-1-3.5-1.7-4.1-1.7
						c-0.7,0-3.6-1.1-6.2-2.3c-2.8-1.2-7.1-3.1-9.8-3.9c-2.6-1-8.9-3.2-13.9-5s-11.5-3.9-14.4-4.7s-6.2-1.8-7.2-2.3
						c-1.1-0.6-4.7-1.6-8.2-2.5s-9.7-2.4-13.9-3.5c-20.2-5-50-10.2-67.8-11.7c-30-2.7-74.4-3.5-76.5-1.3c-0.7,0.7-3.7,9-6.6,18.5
						c-15.9,50.6-24.5,77.6-28.4,88.4c-1.2,3.2-5.9,17.9-10.6,32.7c-11.3,35.7-16.5,51.8-20.6,63.4c-3.4,9.7-16.9,52.7-16.9,53.7
						c0,0.3,5.5,0.6,12.3,0.7c18.3,0,37.9,3.9,56.5,11.3c5.3,2,10,3.8,10.5,4c4.2,1.6,11.1,6.2,11.9,8.2c3.7,8.2-1.6,15.5-10,13.9
						c-2.1-0.4-7.5-2.3-12-4.2c-20.9-8.9-36.8-12.5-56.7-12.8c-16.9-0.2-18.9,0.2-20.7,3.6c-0.8,1.4-6.3,18.4-12.4,37.6
						s-12.5,39.1-14.4,44.3s-3.5,10.4-3.5,11.5c0,1.7,1.5,2.8,9.2,6c9.7,4,12.5,6.3,13.5,11.4c0.7,3.9-1.6,9.6-4.5,11.2
						c-3,1.5-9.7,1.3-12.5-0.4c-3.4-2-12.2-4.8-13.4-4c-0.5,0.3-1,1.2-1,1.7c0,0.7-2.2,7.7-4.8,15.6c-2.7,8-9.2,28.3-14.5,45.2
						s-10.5,32.7-11.5,35.1c-1.5,3.7-10,30.5-16.2,51.4c-0.9,3.2-2.6,8-3.7,10.6c-1.1,2.7-4.6,13.4-7.8,23.8
						c-3.2,10.5-6,19.5-6.2,19.9c-0.7,1.2,0.7,1.3,17.2,3.5c8.9,1.2,12.8,1.9,11.5,2.5c-1.2,0.5-0.9,0.6,1.1,0.3
						c1.6-0.3,5.8,0.2,9.1,1.1c3.5,0.9,7,1.5,8,1.6c0.9,0.1,1.6,0.5,1.6,0.9s0.8,0.8,1.7,0.8c1.8,0,12.2,2.5,14.6,3.6
						c1.7,0.7,2.7,1,5.6,1.1c1.2,0.1,2,0.6,1.7,1.1s0,0.8,0.7,0.7c2.6-0.3,27.5,8.5,26.3,9.3c-0.8,0.5-0.5,0.6,0.9,0.3
						c2.8-0.9,26,8.1,24.7,9.4c-0.4,0.4-0.1,0.5,0.7,0.1c0.8-0.3,3.7,0.4,6.2,1.3c2.7,1.1,4.4,1.9,3.8,2c-0.5,0-0.2,0.5,0.8,1.1
						c0.9,0.5,2.1,0.7,2.7,0.4c0.5-0.4,1.9,0,3.1,0.7c1.2,0.8,5.7,2.8,10.1,4.6c4.3,1.7,7.9,3.6,7.9,4s0.3,0.7,0.8,0.7
						c2.3-0.4,4,0.2,3.5,1.2c-0.4,0.7-0.3,0.8,0.4,0.4c0.6-0.3,6.7,2.1,13.6,5.6c6.9,3.4,12,6.4,11.3,6.7s-0.3,0.3,1,0
						c1.2-0.3,2.1-0.1,2.1,0.6c0,0.6,0.3,0.9,0.8,0.7c0.4-0.3,2.9,0.7,5.6,2c18.5,9.6,28.1,15.1,27.7,15.8c-0.3,0.4,0.1,0.5,0.9,0.3
						c0.7-0.3,2.4,0.6,3.8,1.8c1.4,1.3,2.9,2.5,3.1,2.5c1,0,10.1,4.9,10.1,5.4c0,0.3-0.5,0.2-1.2-0.2s-0.8-0.3-0.4,0.4
						c0.4,0.6,1.3,0.8,2.2,0.5c1.2-0.5,1.3-0.3,0.8,0.7c-0.5,0.8-0.4,1.1,0.3,0.6c0.6-0.3,2.6,0.3,4.4,1.4c3.8,2.2,4.7,3.5,1.3,1.8
						c-2-1-2.1-1-0.5,0.4c1.1,0.8,2.4,1.2,3.2,0.9c0.8-0.3,1.3,0,1.3,0.7c0,0.6,0.3,0.9,0.8,0.6c0.7-0.4,8.1,4.6,7.6,5.3
						c-0.1,0.2,0,0.3,0.2,0.2c0.4-0.3,14.5,9.4,14.5,9.9c0,0.2-0.8,0.1-1.6-0.2c-1.3-0.5-1.4-0.4-0.4,0.4c0.8,0.6,1.9,0.8,2.5,0.5
						c1.2-0.4,20,16.3,27.8,24.7c3.9,4.1,8.3,14.2,8.3,19.1c0,3.4-2.2,8.8-5.9,14.6c-2.2,3.5-4,5-7.9,6.6c-2.8,1.2-5.3,2.7-5.7,3.3
						c-0.8,1.2-19.4,1.4-30.1,0.4c-3.7-0.4-7.7-0.8-8.9-0.8c-1.4,0-2-0.4-1.5-1.2c0.5-0.7,0.2-0.9-0.8-0.5c-0.9,0.3-3.2,0.1-5.2-0.4
						c-2.1-0.6-9.3-2.2-16.2-3.7c-16.4-3.7-34.3-9.1-33.4-10c0.5-0.4,0.1-0.7-0.7-0.5c-2.2,0.4-7.9-1.1-10.4-2.7
						c-1.2-0.8-2.5-1.2-2.8-0.9c-0.4,0.3-1.2,0.1-1.9-0.5c-0.7-0.6-1.2-0.8-1.2-0.3s-0.4,0.4-0.8-0.2s-5-2.4-10.3-4.1
						c-5.3-1.7-10-3.7-10.4-4.5s-1.2-1.3-1.9-1.3c-0.8,0-0.6,0.4,0.3,1.1c1.2,0.9,1.1,0.9-0.5,0.4c-1.1-0.4-2.7-1-3.7-1.2
						c-1.4-0.4-1.5-0.7-0.5-1.2c0.9-0.7,0.8-0.9-0.7-0.7c-3.5,0.2-6.3-0.2-6-0.9c0.3-0.5-0.7-0.9-2.1-1c-2.4-0.2-3.2,1-11.1,15.4
						c-4.7,8.6-9,16.2-9.7,17s-4.3,7.5-8.2,14.9c-6.3,12.2-10.8,20.2-16,29c-2.3,3.9-7.8,7-12.5,7
						C4117.6,994.4,4110.1,991.8,4099.1,987.2z M4118.7,954.3c5.4-10.7,17-31.6,19.2-34.8c3.9-5.7,11-20.6,9.8-21
						c-0.7-0.2-1-0.8-0.7-1.2c0.4-0.5-0.2-0.6-1.1-0.2c-1.2,0.5-1.4,0.3-0.9-0.6c0.5-1,0.2-1.1-1.1-0.7c-1.1,0.3-3.1-0.3-4.7-1.3
						c-1.5-1.1-3.2-1.9-3.6-1.9c-0.8,0-5.8,8.5-14.4,24.5c-6.6,12.1-6.6,12.3-16.1,28.6c-3.4,5.7-5.9,10.5-5.7,10.8
						c0.8,0.7,12.8,6.1,13.8,6.2C4114,962.7,4116.3,959,4118.7,954.3z M4322.2,919.3c-1.2-1.7-2-3.3-1.9-3.5c0.2-0.2,0-0.7-0.4-1
						c-0.4-0.4-0.4,0,0.1,0.8c0.4,0.8-0.7-0.2-2.3-2.1c-1.7-2-6-6.1-9.5-9.1c-3.6-3-6.3-5.8-6.2-6.2s-0.5-1.2-1.3-2
						c-1.3-1.1-1.5-1.1-0.9,0.1c0.6,0.9,0.5,1.2-0.5,0.9c-0.8-0.3-1.2-1.1-1.1-1.6c0.1-0.7-0.1-1-0.6-0.7s-1.7-0.2-2.7-1
						c-1-0.9-1.2-1.2-0.4-0.8c0.8,0.4,1.1,0.3,0.7-0.1c-0.4-0.5-1.3-1-2.1-1.1c-1.4-0.2-9.5-6.4-11.8-9c-0.8-0.8-1.1-0.9-0.7-0.2
						c0.3,0.6-1,0.3-2.8-0.9c-1.9-1.2-3.3-2.4-3-2.8c0.7-1.1-1-2-3.8-2.4c-1.3-0.1-6.2-2.6-10.8-5.5c-4.7-2.9-10.2-6.2-12.3-7.5
						c-2.1-1.2-4.1-2.8-4.5-3.3c-0.4-0.6-0.8-0.7-0.8-0.3c0,0.8-12.4-5.7-13.5-7c-0.3-0.3-3.8-2-7.9-3.8c-4.9-2.2-7-3.6-6.2-4.1
						c0.8-0.6,0.6-0.7-0.6-0.3c-1.1,0.3-6.4-1.8-13.9-5.6c-6.7-3.4-13.2-6.4-14.3-6.8c-1.2-0.3-2.2-1.1-2.2-1.6s-0.3-0.9-0.6-0.5
						c-1,0.9-6.2-1.3-5.5-2.5c0.4-0.6,0.1-0.7-0.6-0.3c-1.5,1-7-1.2-6.2-2.6c0.3-0.6,0.1-0.7-0.5-0.3c-0.7,0.4-2.3,0-3.7-0.9
						c-1.5-0.8-6.2-2.8-10.4-4.3c-4.2-1.5-7.2-2.8-6.7-2.9c1.2,0-1.5-1.9-2.9-1.9c-0.5,0-0.3,0.5,0.5,1c2.6,1.7,0.5,1-9.8-3.3
						c-5.7-2.3-11.6-4.5-13.4-4.9c-2.3-0.6-2.7-0.9-1.7-1.6c1.1-0.8,1-0.9-0.4-0.4c-1.9,0.7-12.3-2.3-11.6-3.4
						c0.2-0.4-0.6-0.5-1.7-0.2c-1.8,0.4-1.9,0.3-0.8-0.7c1.2-0.9,1.1-1-0.8-0.5c-1.2,0.4-3.4,0-4.8-0.7c-1.4-0.8-7.4-2.6-13.2-4.1
						c-5.9-1.5-10.7-3.1-10.9-3.5c-0.1-0.3-1.3-0.4-2.6-0.1c-1.3,0.2-2.4,0-2.4-0.5s-0.8-0.9-1.6-1c-1-0.1-5.9-1-10.9-2.1
						s-10.1-2-11.3-2s-2-0.3-1.8-0.7c0.3-0.5-5.4-0.8-12.6-0.8H4022l-1,3.3c-1,3.3-0.9,3.4,8.2,12c5,4.8,8.2,8.1,7.1,7.3
						c-1.8-1.3-1.8-1.3-0.6,0.3c0.7,0.9,1.8,1.5,2.5,1.4c0.7-0.2,3.1,1.2,5.4,3.1c2.3,1.8,6,4.5,8.1,6s3.8,3.2,3.8,3.7
						c0,0.7,0.6,1.3,1.3,1.6c0.9,0.3,1.1,0,0.6-0.8c-0.8-1.2,6.3,3.1,9.6,5.9c1.1,0.9,4.4,3,7.5,4.7c3,1.6,5.5,3.3,5.5,3.6
						c0,0.2-0.5,0.1-1.2-0.3c-0.7-0.4-0.8-0.3-0.4,0.5c0.4,0.6,1.2,0.9,1.6,0.6c1.1-0.7,6.6,2.4,6.6,3.7c0,0.5,0.3,0.7,0.6,0.3
						c0.3-0.3,3.3,1.1,6.5,3c3.2,1.9,8.4,4.8,11.3,6.4c3,1.5,5.2,3.3,4.9,3.7c-0.4,0.5,0.1,0.7,1,0.3c0.9-0.3,2.9,0.4,4.7,1.5
						c3.7,2.5,11.2,6,11.7,5.4c0.2-0.2,2.4-3.8,4.9-8.1c6-9.9,7.8-11.8,11.8-12.6c5-1,9.4,1.5,10.7,6.1c1.2,4,0,9.7-2.7,13.7
						c-1,1.3-2.6,4.2-3.7,6.4l-2.1,4.1l5.8,2.9c3.2,1.5,6.2,2.9,7,2.9c0.7,0,3.1-3.3,5.4-7.3c4.7-8.3,8.3-11,14-11
						c4.8,0.1,7.2,1.4,11.1,6.2c2.7,3.5,3.1,4.4,2.7,8.7c-0.3,2.9-1.2,6.1-2.5,7.8c-1.1,1.5-2.3,3.9-2.6,5.3
						c-0.6,2.3-0.3,2.6,5.8,4.6c4.8,1.6,6.2,2.4,5.2,3.1c-1.1,0.8-1,0.9,0.4,0.4c1.6-0.5,10.3,1.9,11.2,3.2c0.3,0.3,1,0.6,1.4,0.7
						c2.3,0.1,6.2,1.6,6.2,2.4c0,0.5,0.6,0.6,1.3,0.3c0.8-0.3,1.6-0.1,1.9,0.5c0.4,0.6,1.3,0.7,2.3,0.4c0.9-0.3,1.3-0.2,0.9,0.2
						c-0.7,0.8,16.9,6.6,27.4,9.1c2.8,0.7,4.3,1.5,3.9,2.2c-0.3,0.6-0.1,0.7,0.6,0.3c1.1-0.7,15.5,2.1,16.4,3.3
						c0.3,0.3,1.2,0.6,1.9,0.7c0.8,0.1,2.5,0.5,3.8,0.8c8.7,2.3,18.7,3.7,31.2,4.2C4325.5,924.9,4326.1,924.6,4322.2,919.3z
						 M4104.3,851.8c0-0.2-0.7-0.7-1.5-1s-1.2-0.2-0.9,0.4C4102.5,852.2,4104.3,852.6,4104.3,851.8z M4251.3,840.3
						c0-0.2-0.7-0.7-1.5-1s-1.2-0.2-0.9,0.4C4249.5,840.7,4251.3,841.1,4251.3,840.3z M4039.9,837.3c-0.7-0.8-1.6-1.4-2.2-1.4
						s-0.2,0.7,0.9,1.4C4041,839.1,4041.4,839.1,4039.9,837.3z M4532.3,625.4l2.6-3.9l-6.3-7.1c-5.8-6.4-20.6-21-29.7-29.2
						c-2-1.7-3.9-2.8-4.4-2.4c-0.4,0.5-2.1,3.3-3.7,6.2l-3,5.4l3.8,2.6c6.6,4.3,27.2,21.3,32.7,26.9c2.9,3,5.3,5.4,5.4,5.4
						S4530.9,627.5,4532.3,625.4z"/>
					<path class="st10" d="M4272,878.2c-0.3-0.6,0.1-0.7,0.9-0.4c1.7,0.7,2,1.3,0.7,1.3C4272.9,879.1,4272.3,878.7,4272,878.2z"/>
					<path class="st10" d="M4672.6,276.7c-3.7-2.2-5.6-6.7-4.9-11.1c0.3-1.8,4.8-10.5,10-19.2c5.2-8.6,13.9-23.6,19.5-33.2
						c5.6-9.6,14.7-25.3,20.3-34.9c10-17.1,21.8-37.4,38.4-65.8c18.5-31.7,25.5-43,28-44.7c3.8-2.9,10-1.3,13.1,3.2
						c3.6,5.2,2.6,9.5-4.6,21.1c-3.3,5.4-8.5,14.1-11.4,19.5c-3.1,5.4-7.7,13.4-10.3,17.7c-2.6,4.4-8.6,14.7-13.4,23
						c-4.7,8.2-13.2,22.7-18.7,32.2c-5.6,9.4-14.6,25-20.2,34.6c-5.6,9.5-14.2,24.3-19.3,32.9c-5,8.6-10.2,17.3-11.3,19.5
						C4684,278.1,4678.3,280.1,4672.6,276.7z"/>
					<path class="st10" d="M4625.9,228c-1.4-0.9-3.4-2.8-4.1-4.3c-2.9-5.5-2-8.5,7.1-23.6c4.6-7.9,11.9-20.2,16.1-27.3
						s10.3-17.3,13.5-22.6s10.9-18.3,17.1-28.8c12.3-20.8,15.3-24.5,19.7-24.5c6.6,0,10.8,4.2,10.8,11.1c0,3.7-1.2,6.2-8.2,17.5
						c-4.4,7.2-9.1,15.1-10.3,17.5c-1.2,2.4-6.2,10.9-11.1,18.7c-4.8,8-11,18.4-13.6,23.1c-7,12.4-24.1,40.1-26.1,42.1
						C4634.5,229.3,4629.1,229.9,4625.9,228z"/>
					<path class="st10" d="M4322.6,103.1c-2.9-2.1-5-6.4-5-10.3c0-2.1,4.7-12.8,14.2-32.5c18.8-38.9,19.2-39.5,23.4-41.7
						s7.3-1.6,11.7,2.2c2.8,2.5,3.1,3.4,3,8c0,4.6-1.5,8.3-15.8,37.5c-8.6,17.8-16.5,33.4-17.7,34.9
						C4333.9,104.3,4326,105.5,4322.6,103.1z"/>
					<path class="st10" d="M4288,80c-2.9-2.1-5-6.4-5-10.2c0-3.7,51.1-126.9,55.3-133.2c1.3-2,2.2-2.2,9.1-2.2c6.7,0,7.8,0.2,9,2.1
						c0.9,1.2,1.5,4,1.5,6.3c0,4.5-0.6,5.8-19.4,49.2c-6.3,14.5-16.9,39.3-23.5,55.3c-6.6,15.9-13,29.9-14.2,31.1
						C4297.9,81.4,4291.1,82.2,4288,80z"/>
				</g>
			</g>
		</g>
	</g>
	<g>
		<g>
			<path class="st14" d="M157.5,1274.7c-5.2,0-10.2-1-14.9-3c-4.6-1.9-8.7-4.7-12.2-8.2s-6.3-7.6-8.2-12.2c-2-4.7-3-9.8-3-14.9
				c0-5.2,1-10.2,3-14.9c1.9-4.6,4.7-8.7,8.2-12.2s7.6-6.3,12.2-8.2c4.7-2,9.8-3,14.9-3c5.6,0,10.9,1.2,15.9,3.4
				c4.8,2.2,9.1,5.3,12.7,9.3c0.9,1,0.8,2.5-0.2,3.4s-2.5,0.8-3.4-0.2c-6.4-7.1-15.5-11.2-25-11.2c-18.5,0-33.6,15.1-33.6,33.6
				s15.1,33.6,33.6,33.6s33.6-15.1,33.6-33.6c0-3-0.4-6.1-1.2-9c-0.4-1.3,0.4-2.6,1.7-3s2.6,0.4,3,1.7c0.9,3.3,1.4,6.8,1.4,10.2
				c0,5.2-1,10.2-3,14.9c-1.9,4.6-4.7,8.7-8.2,12.2s-7.6,6.3-12.2,8.2C167.7,1273.7,162.7,1274.7,157.5,1274.7z"/>
			<path class="st14" d="M174.6,1222.7l-30.7,30.7c-0.9,0.9-2.5,0.9-3.4,0s-0.9-2.5,0-3.4l30.7-30.7c0.9-0.9,2.5-0.9,3.4,0
				S175.5,1221.7,174.6,1222.7z"/>
			<path class="st14" d="M143.9,1219.3l30.7,30.7c0.9,0.9,0.9,2.5,0,3.4s-2.5,0.9-3.4,0l-30.7-30.7c-0.9-0.9-0.9-2.5,0-3.4
				C141.4,1218.3,142.9,1218.3,143.9,1219.3L143.9,1219.3z"/>
		</g>
	</g>
	<g>
		<g>
			<path class="st14" d="M430.2,1401.2c-5.2,0-10.2-1-14.9-3c-4.6-1.9-8.7-4.7-12.2-8.2s-6.3-7.6-8.2-12.2c-2-4.7-3-9.8-3-14.9
				c0-5.2,1-10.2,3-14.9c1.9-4.6,4.7-8.7,8.2-12.2s7.6-6.3,12.2-8.2c4.7-2,9.8-3,14.9-3c5.6,0,10.9,1.2,15.9,3.4
				c4.8,2.2,9.1,5.3,12.7,9.3c0.9,1,0.8,2.5-0.2,3.4s-2.5,0.8-3.4-0.2c-6.4-7.1-15.5-11.2-25-11.2c-18.5,0-33.6,15.1-33.6,33.6
				s15.1,33.6,33.6,33.6s33.6-15.1,33.6-33.6c0-3-0.4-6.1-1.2-9c-0.4-1.3,0.4-2.6,1.7-3c1.3-0.4,2.6,0.4,3,1.7
				c0.9,3.3,1.4,6.8,1.4,10.2c0,5.2-1,10.2-3,14.9c-1.9,4.6-4.7,8.7-8.2,12.2s-7.6,6.3-12.2,8.2
				C440.4,1400.2,435.4,1401.2,430.2,1401.2z"/>
			<path class="st14" d="M447.3,1349.2l-30.7,30.7c-0.9,0.9-2.5,0.9-3.4,0s-0.9-2.5,0-3.4l30.7-30.7c0.9-0.9,2.5-0.9,3.4,0
				S448.2,1348.2,447.3,1349.2z"/>
			<path class="st14" d="M416.6,1345.8l30.7,30.7c0.9,0.9,0.9,2.5,0,3.4s-2.5,0.9-3.4,0l-30.7-30.7c-0.9-0.9-0.9-2.5,0-3.4
				C414.1,1344.8,415.6,1344.8,416.6,1345.8L416.6,1345.8z"/>
		</g>
	</g>
	<g>
		<g>
			<path class="st14" d="M159.6,1505c-5.2,0-10.2-1-14.9-3c-4.6-1.9-8.7-4.7-12.2-8.2s-6.3-7.6-8.2-12.2c-2-4.7-3-9.8-3-14.9
				c0-5.2,1-10.2,3-14.9c1.9-4.6,4.7-8.7,8.2-12.2s7.6-6.3,12.2-8.2c4.7-2,9.8-3,14.9-3c5.6,0,10.9,1.2,15.9,3.4
				c4.8,2.2,9.1,5.3,12.7,9.3c0.9,1,0.8,2.5-0.2,3.4s-2.5,0.8-3.4-0.2c-6.4-7.1-15.5-11.2-25-11.2c-18.5,0-33.6,15.1-33.6,33.6
				s15.1,33.6,33.6,33.6s33.6-15.1,33.6-33.6c0-3-0.4-6.1-1.2-9c-0.4-1.3,0.4-2.6,1.7-3s2.6,0.4,3,1.7c0.9,3.3,1.4,6.8,1.4,10.2
				c0,5.2-1,10.2-3,14.9c-1.9,4.6-4.7,8.7-8.2,12.2s-7.6,6.3-12.2,8.2C169.8,1504,164.8,1505,159.6,1505z"/>
			<path class="st14" d="M176.7,1453l-30.7,30.7c-0.9,0.9-2.5,0.9-3.4,0s-0.9-2.5,0-3.4l30.7-30.7c0.9-0.9,2.5-0.9,3.4,0
				S177.6,1452,176.7,1453z"/>
			<path class="st14" d="M146,1449.6l30.7,30.7c0.9,0.9,0.9,2.5,0,3.4s-2.5,0.9-3.4,0l-30.7-30.7c-0.9-0.9-0.9-2.5,0-3.4
				C143.5,1448.6,145,1448.6,146,1449.6L146,1449.6z"/>
		</g>
	</g>
</g>
<g id="Capa_2">
</g>
</svg>
