<?xml version="1.0" encoding="utf-8"?>
<!-- Generator: Adobe Illustrator 26.0.0, SVG Export Plug-In . SVG Version: 6.00 Build 0)  -->
<svg version="1.1" id="Capa_1" xmlns="http://www.w3.org/2000/svg" xmlns:xlink="http://www.w3.org/1999/xlink" x="0px" y="0px"
	 viewBox="0 0 595.3 638.5" style="enable-background:new 0 0 595.3 638.5;" xml:space="preserve">
<style type="text/css">
	.st0{display:none;}
	.st1{display:inline;}
	.st2{fill:#DBDBDC;}
	.st3{fill:#BE0F01;}
	.st4{fill:#3973CC;}
	.st5{fill:#7FB1E0;}
	.st6{fill:#CDC9CA;}
	.st7{display:none;fill:#FEFDFD;}
	.st8{fill:#FEFDFD;}
	.st9{fill:#FFFFFF;}
	.st10{font-family:'Calibri';}
	.st11{font-size:19px;}
	.st12{font-family:'ArialMT';}
	.st13{font-size:12px;}
	.st14{fill:none;}
</style>
<g>
	<g class="st0">
		<rect x="-30" y="-25" class="st1" width="663" height="724"/>
	</g>
	<ellipse class="st2" cx="406.7" cy="261.4" rx="62.9" ry="61.1"/>
</g>
<g>
	<g>
		<path class="st3" d="M370.8,311.4c-3.5-2.2-6.7-4.8-9.5-7.8c-12.5-13-18.3-28.4-17.4-46.2c0.1-2.8,0.5-5.6,1.2-8.3
			c0.1-0.2,0.2-0.5,0.3-0.7l2.3-3.4c0.2-0.1,0.4-0.3,0.4-0.5l0.1-0.1l0,0c3.1-3.5,6.8-6.6,10.8-9.1c2.1-1.4,4.5-2.3,6.7-3.6
			c0.3-0.1,0.5-0.1,0.8-0.3c8-3.5,16.6-5.7,25.3-6.6c2.4-0.3,4.8-0.5,7.2-0.7c4.1,0,8.3,0,12.4,0.1c1.6-0.1,2.2,0.9,2.4,2.3
			c0,0.1,0.1,0.2,0.1,0.3c1.2,3.1,3.5,5.3,6.1,7.3c0.4,0.3,0.8,0.6,0.7,1.1l-3.3,4.9l-8,12c-2.5,3.3-4.7,6.7-6.9,10.1
			c-0.2,0.2-0.3,0.4-0.5,0.6c-2.4,3.5-4.7,7-7,10.5c-0.5,0.8-1.3,1.3-1.7,2c-1,2-2.4,3.8-3.5,5.7c-1.3,2.1-2.8,4.1-4.1,6.2
			c-2.1,3.3-4.2,6.5-6.3,9.8C376.3,302,373.3,306.5,370.8,311.4z"/>
		<path class="st2" d="M370.8,311.4c2.5-4.8,5.5-9.4,8.4-14c2.1-3.3,4.3-6.5,6.3-9.8c1.3-2.1,2.8-4.1,4.1-6.2
			c1.2-1.9,2.5-3.7,3.5-5.7c0.4-0.8,1.2-1.3,1.7-2c2.3-3.5,4.7-7,7-10.5c0.1-0.2,0.3-0.4,0.5-0.6c0.2,0.9,0.4,1.8,1.7,2
			c0.3,0,0.5,0.4,0.7,0.5c1,0.8,1.3,2.1,2.5,2.7c0.1,0.1,0.2,0.4,0.2,0.6c0.1,1.7,1.6,2.5,2.6,3.5c0.8,0.6,1.5,1.4,2,2.3
			c0.7,1.5,1.7,2.9,2.4,4.4c0.4,0.9,0.8,0.8,1.4,0.2c0.3-0.3,0.8-0.8,1.3-0.3c1.4,1.4,2.7,2.8,3.9,4.3c0.9,1.3,1.5,2.8,1.7,4.4
			c0,1.1,0.1,2.1,0.5,3.1c0.2,0.3,0,0.5-0.1,0.8c-0.6,1.7-2.2,2.4-3.5,3.5c-0.9,0.6-1.8,1.1-2.8,1.6c-1.2,0.7-1.7,2.3-1,3.5
			c0,0,0.1,0.1,0.1,0.2c0.4,0.6,0.5,1.3,0.4,2c-0.5,2.1-0.2,4.2-0.3,6.4c0,1.1-1.2,1.8-1.1,2.9c0,0-0.1,0.1-0.2,0.1
			c-0.4,0.1-0.9,0-0.8,0.6c0,0.5,0.3,0.9,0.7,1c0.7,0.2,0.7,0.8,0.5,1.3c-0.7,1.5,0.1,2.9,0.7,4.1c0.6,1.4,2,2.3,3.5,2.1
			c0.4,0,0.8,0.1,0.9,0.5c-2.8,0.7-5.6,1.2-8.4,1.4c-3,0.3-6,0.3-9,0.1c-2.5-0.1-4.9-0.5-7.4-0.8c-0.1-0.1-0.2-0.1-0.3-0.2
			c-5.1-0.9-10-2.4-14.7-4.4C377.2,315.5,373.9,313.6,370.8,311.4z"/>
		<path class="st2" d="M411.3,224.4c-4.1-0.2-8.3-0.2-12.4-0.1c-0.3-0.1-0.7,0-0.9-0.2c-0.5-0.9-1.5-1-2.3-1.3
			c-0.5-0.2-1.2-0.4-1.3-1.1c-0.1-0.4-0.4-0.7-0.8-0.8c-1.5-0.7-1.7-2.5-3.2-3.3c-0.1-0.1-0.1-0.3-0.2-0.5c-0.4-1.4-1.5-2.4-2.4-3.3
			s-1.2-2.4-1.9-3.6c-0.5-1-0.9-2.1-1-3.2c-0.1-0.9-0.6-1.1-1.4-1.1c-0.6,0.1-1.3-0.1-1.8-0.5c2.4-1.2,5-2.1,7.6-2.7
			c3.5-1,7.1-1.7,10.7-1.9c0.5,0.3,1.1,0.5,1.8,0.6c3.3,1,6.1,2.9,9,4.7c2,1.4,3.9,2.9,5.7,4.6c1,0.8,1.8,1.8,2.6,2.8
			c0.8,1.2,1.8,2.6,3.8,1.7c0.8-0.3,1.6-0.2,2.4,0.2c0.3,0.1,0.7,0.2,1,0.2c1.6,0.2,3.3,0.6,4.8,1.3c1.3,0.4,2.1,1.6,3.6,1.6
			c-0.4,0.6-0.7,1.4-1.6,1.4s-1.8-0.2-2.5-0.7c-0.3-0.2-0.6-0.4-1-0.2c-1.1,0.5-2.5,0.6-3.4,1.7c-0.6,0.6-0.8,1.4-0.3,1.9
			c1.1,1.4,2.4,2.5,4,3.3c2.3,1.1,5,1.1,7.2,2.4c0.2,0.1,0.6,0.4,0.9,0.1c0.2-0.3,0.3-0.7,0.1-1.1c-0.2-0.3-0.4-0.6-0.6-0.8
			c1,0.5,1.8,0.2,2.3,0.7c1.1,3.5,0,8.2-4.1,9.9c-0.6,0.3-0.8,0.5-0.4,1.1c4.8,8.7,8.3,18.1,10.5,27.8c0.3,1.3,0.5,2.6,0.7,3.9
			c0.3,1.5,0.5,3,0.7,4.6c0.3,1.7,0.2,3.4,0.5,5.1c0.5,3.9,0.5,7.9,0,11.8c0-1.4,0-2.8,0.1-4.3c0-0.3,0.1-0.6-0.2-0.8
			c-0.5-0.4-0.6-0.7,0.1-1.1c0.4-0.2,0.2-0.7-0.3-0.8s-0.6-0.5-0.6-0.9c0-1-0.2-2-0.7-2.9c-1-1.5-1-3.4-0.2-5
			c0.2-0.4,0.5-1.3,0.1-1.4c-1-0.5-1.8-1.3-2.2-2.3c-0.9-1.5-2.4-2.5-3.6-3.8c-0.2-0.2-0.4-0.4-0.7-0.3s-0.5,0.4-0.5,0.7
			c0,1.1-0.7,1.6-1.8,1.7c-1.7,0.1-3.3,0.6-4.8,1.4c-0.4,0.2-0.9,0.4-1.3,0.4c-1,0.4-2.2-0.1-2.6-1.1v-0.1c-0.3-0.6-0.8-1-1.4-1.3
			c-0.5-0.2-0.9-0.5-1.2-1c-1.3-2.3-2.9-4.5-3.8-7c-0.7-1.8-2.2-2.9-3.4-4.3c-1.2-1.4-3.2-1.5-4.9-1.9c-1.5-0.4-3-0.8-3.5-2.5
			c-0.1-0.3-0.4-0.5-0.6-0.7l8-12l3.3-4.9l0.2,0.1v-0.1c0.1-1,0.6-1.9,1.4-2.6c0.5-0.7,0.4-1.7-0.3-2.3c-0.1-0.1-0.1-0.1-0.2-0.1
			c-1.4-0.4-2.5-1.6-2.7-3.1c0-0.4-0.2-0.9-0.5-1.2c-0.5-0.4-0.6-1.4-1.3-1.4C415.2,224.9,413.3,224.3,411.3,224.4z M435,235.2
			L435,235.2c0,0.3-0.2,0.5-0.5,0.5c-0.4,0.1-0.9,0.3-0.6,0.8s0.7,0.3,1.1,0.2c1.1-0.4,2.1-1.1,2.9-2c0.5-0.6,1.2-1.3,1.1-2.2
			c0-0.2-0.1-0.5-0.5-0.6s-0.4,0.3-0.5,0.5c-0.3,0.4-0.3,1-1.2,1.3c0.5-0.7,0.9-1.4,1.1-2.3c0-0.3,0.4-0.7-0.1-0.9s-0.8,0-1.1,0.5
			c-0.9,1.3-1.6,2.8-3.4,3.3c-0.4,0.1-0.4,0.4-0.2,0.6s0.3,0.8,0.8,0.6C434.2,235.3,434.6,235.2,435,235.2z M439.2,227.9
			c-0.1-0.3-0.4-0.6-0.7-0.6c-0.2,0-0.4,0.1-0.3,0.4s0.1,0.7,0.6,0.7C439.1,228.3,439.2,228.2,439.2,227.9L439.2,227.9z"/>
		<path class="st2" d="M409.3,252.3c0.2,0.2,0.5,0.4,0.6,0.7c0.5,1.7,2,2.1,3.5,2.5c1.7,0.5,3.7,0.4,4.9,1.9
			c1.2,1.5,2.7,2.4,3.4,4.3c0.9,2.5,2.5,4.7,3.8,7c0.3,0.5,0.7,0.8,1.2,1c0.6,0.3,1.1,0.7,1.4,1.3c0.4,1,1.5,1.6,2.5,1.3h0.1
			c0.5,0,0.9-0.2,1.3-0.4c1.4-0.9,3.1-1.4,4.8-1.4c1.1-0.1,1.8-0.6,1.8-1.7c0-0.3,0.1-0.6,0.5-0.7s0.5,0.1,0.7,0.3
			c1.2,1.2,2.7,2.3,3.6,3.8c0.4,1,1.2,1.8,2.2,2.3c0.4,0.1,0.1,1-0.1,1.4c-0.8,1.6-0.7,3.5,0.2,5c0.5,0.9,0.7,1.9,0.7,2.9
			c0,0.5,0.1,0.8,0.6,0.9s0.7,0.5,0.3,0.8c-0.6,0.4-0.6,0.7-0.1,1.1c0.3,0.2,0.2,0.5,0.2,0.8c0,1.4,0,2.8-0.1,4.3
			c-0.4,2.4-0.3,4.9-1.2,7.3c-0.8,2.1-1,4.4-2.1,6.5c-0.7,1.4-1.2,2.8-2,4.1c-0.6,1-1.5,1.8-1.7,3c-0.3,0.8-1.1,1.1-1.7,1.4
			c-5.3,3-11,5.3-17,6.7c-0.4,0.1-0.8,0.1-1.2,0.2c-0.2-0.4-0.5-0.6-0.9-0.5c-1.5,0.1-3-0.7-3.5-2.1c-0.5-1.2-1.4-2.6-0.7-4.1
			c0.2-0.5,0.2-1-0.5-1.3c-0.4-0.1-0.7-0.5-0.7-1c-0.1-0.6,0.4-0.5,0.8-0.6c0.1,0,0.2-0.1,0.2-0.1c0-1.1,1.1-1.8,1.1-2.9
			c0-2.1-0.3-4.2,0.3-6.4c0.1-0.7,0-1.4-0.4-2c-0.8-1.2-0.5-2.8,0.7-3.6c0,0,0.1-0.1,0.2-0.1c1-0.4,1.9-1,2.8-1.6
			c1.2-1.1,2.9-1.8,3.5-3.5c0.1-0.3,0.3-0.5,0.1-0.8c-0.4-1-0.6-2.1-0.5-3.1c-0.2-1.6-0.7-3.1-1.7-4.4c-1.2-1.5-2.5-3-3.9-4.3
			c-0.5-0.5-0.9,0-1.3,0.3c-0.6,0.6-1,0.7-1.4-0.2c-0.7-1.5-1.6-2.9-2.4-4.4c-0.5-0.9-1.2-1.7-2-2.3c-1-1-2.5-1.8-2.6-3.5
			c0-0.2-0.1-0.5-0.2-0.6c-1.2-0.6-1.5-2-2.5-2.7c-0.2-0.2-0.5-0.5-0.7-0.5c-1.2-0.1-1.5-1-1.7-2C404.6,259,406.9,255.6,409.3,252.3
			z"/>
		<path class="st4" d="M440.4,312.5c0.2-1.2,1.1-2,1.7-3c0.8-1.3,1.3-2.8,2-4.1c1-2.1,1.3-4.4,2.1-6.5c0.9-2.4,0.8-4.9,1.2-7.3
			c0.5-3.9,0.5-7.9,0-11.8c-0.2-1.7-0.2-3.4-0.5-5.1c-0.3-1.5-0.5-3-0.7-4.6c-0.2-1.3-0.4-2.6-0.7-3.9c-2.2-9.7-5.7-19.1-10.5-27.8
			c-0.4-0.7-0.2-0.9,0.4-1.1c4.1-1.8,5.2-6.4,4.1-9.9c2.1,0.4,4.1,1.5,6.1,2.1c0.2,0.1,0.5,0.3,0.7,0.4c8.2,3.4,15.6,7.8,20.7,15.1
			l0,0l0.3,0.4c0.9,2.5,1.5,5.2,1.7,7.8c2.7,20-4.8,40-19.9,53.3c-2.3,2.1-4.8,4-7.4,5.6C441.4,312.4,440.9,312.6,440.4,312.5z"/>
		<path class="st2" d="M381.8,205.4c0.5,0.4,1.2,0.6,1.8,0.5c0.8,0,1.3,0.2,1.4,1.1c0.1,1.1,0.5,2.2,1,3.2c0.7,1.1,0.9,2.5,1.9,3.6
			s2,1.9,2.4,3.3c0,0.2,0.1,0.4,0.2,0.5c1.4,0.8,1.7,2.6,3.2,3.3c0.4,0.1,0.6,0.4,0.8,0.8c0.2,0.7,0.8,0.9,1.3,1.1
			c0.9,0.3,1.8,0.4,2.3,1.3c0.1,0.2,0.6,0.1,0.9,0.2c-2.4,0.2-4.8,0.5-7.2,0.7c-8.7,0.9-17.2,3.1-25.3,6.6c-0.2,0.1-0.5,0.2-0.8,0.3
			c0-1.2,1-2.6-0.4-3.7c-0.1-0.1,0-0.2,0-0.3c-0.1-1.4-0.4-1.6-1.8-1.3c-0.3,0.1-0.7,0.1-1,0.1c-2-0.4-3.3,0.6-4.5,1.8
			c-3.9,4-7,8.7-9.4,13.7c-0.4,0.7-0.5,1.5-0.3,2.3c0,0.1,0,0.1-0.1,0.1l0,0c-0.3,0-0.4,0.2-0.4,0.5l-2.3,3.4
			c-0.1-0.7,0-1.4,0.3-2.1c3.2-11.9,9.9-22.6,19.3-30.7C370,211.3,375.6,207.9,381.8,205.4z"/>
		<path class="st5" d="M434.5,218.5c-1.5,0.1-2.3-1.2-3.6-1.6c-1.5-0.6-3.1-1.1-4.8-1.3c-0.3,0-0.7-0.1-1-0.2
			c-0.7-0.4-1.6-0.5-2.4-0.2c-2,0.9-3-0.5-3.8-1.7c-0.7-1-1.6-2-2.6-2.8c-1.8-1.7-3.6-3.3-5.7-4.6c-2.9-1.8-5.6-3.8-9-4.7
			c-0.6-0.1-1.2-0.3-1.8-0.6l0,0l0.2-0.1c2.7-0.3,5.3-0.4,8-0.4c3.8,0.2,7.6,0.7,11.4,1.4c6,1.2,11.9,3.3,17.4,6.1
			c1.5,0.7,2.9,1.6,4.2,2.5c0,0.3-0.1,0.5-0.3,0.7c-1.7,1-2.5,2.8-3.8,4.1c-0.9,0.8-1.6,1.8-2,2.9l0,0c-0.3,0-0.4,0.1-0.4,0.4
			L434.5,218.5z"/>
		<path class="st2" d="M435,218c0.4-1.1,1.1-2.1,2-2.9c1.3-1.4,2.1-3.1,3.8-4.1c0.3-0.2,0.3-0.4,0.3-0.7
			c8.9,5.6,16.1,13.3,21.2,22.4c1.8,3.4,3.4,7,4.6,10.7c0.2,0.5,0.5,1,0.2,1.5c-5.2-7.3-12.6-11.7-20.7-15.1
			c-0.2-0.1-0.5-0.2-0.7-0.4c0.5-1.1-0.3-1.9-0.7-2.7C442.7,222.6,439.7,219.3,435,218z"/>
		<path class="st2" d="M400.3,200.6l-0.2,0.1L400.3,200.6z"/>
		<path class="st2" d="M348.2,244.5c-0.2-0.8,0-1.6,0.3-2.3c2.3-5.1,5.5-9.7,9.4-13.7c1.2-1.2,2.6-2.2,4.5-1.8c0.3,0,0.7,0,1-0.1
			c1.4-0.3,1.7-0.1,1.8,1.3c0,0.1,0,0.3,0,0.3c1.4,1.1,0.4,2.4,0.4,3.7c-2.2,1.2-4.5,2.2-6.7,3.6C355,237.9,351.4,241,348.2,244.5z"
			/>
		<path class="st6" d="M411.3,224.4c2-0.2,3.9,0.4,6,0.3c0.7-0.1,0.8,0.9,1.3,1.4c0.3,0.3,0.5,0.8,0.5,1.2c0.2,1.5,1.2,2.7,2.7,3.1
			c0.8,0.4,1.1,1.4,0.6,2.2c0,0.1-0.1,0.1-0.1,0.2c-0.7,0.7-1.2,1.6-1.4,2.6v0.1l-0.2-0.1c0-0.5-0.3-0.8-0.7-1.1
			c-2.6-2-4.9-4.2-6.1-7.3c0-0.1-0.1-0.2-0.1-0.3C413.5,225.3,412.9,224.4,411.3,224.4z"/>
		<path class="st7" d="M435,218c4.8,1.4,7.8,4.6,10,8.7c0.5,0.8,1.2,1.6,0.7,2.7c-2.1-0.6-4-1.7-6.1-2.1c-0.6-0.5-1.4-0.3-2.3-0.7
			c0.2,0.3,0.4,0.5,0.6,0.8s0.1,0.8-0.1,1.1c-0.3,0.3-0.6,0-0.9-0.1c-2.2-1.4-4.9-1.3-7.2-2.4c-1.6-0.8-2.9-1.9-4-3.3
			c-0.5-0.5-0.3-1.3,0.3-1.9c0.9-1,2.3-1.2,3.4-1.7c0.4-0.2,0.7,0,1,0.2c0.8,0.4,1.6,0.7,2.5,0.7s1.3-0.8,1.6-1.4l0,0
			C434.9,218.5,435,218.3,435,218L435,218z"/>
		<path class="st6" d="M435,235.2c-0.4,0-0.8,0.1-1.1,0.3c-0.6,0.2-0.6-0.3-0.8-0.6s-0.2-0.5,0.2-0.6c1.8-0.4,2.5-1.9,3.4-3.3
			c0.3-0.5,0.6-0.6,1.1-0.5s0.1,0.6,0.1,0.9c-0.2,0.8-0.6,1.6-1.1,2.3c0.9-0.3,0.9-0.9,1.2-1.3c0.1-0.2,0.1-0.6,0.5-0.5
			s0.4,0.4,0.5,0.6c0.2,1-0.5,1.6-1.1,2.2c-0.8,0.9-1.8,1.6-2.9,2c-0.4,0.2-0.8,0.4-1.1-0.2s0.2-0.7,0.6-0.8
			C434.8,235.8,435,235.6,435,235.2c0.2,0,0.5,0.1,0.6-0.2c0-0.1,0-0.1-0.1-0.2C435.2,234.8,435.1,235.1,435,235.2z M436.3,234.5
			v-0.2c-0.1,0-0.1,0-0.2,0.1s0,0.1,0,0.2L436.3,234.5z"/>
		<path class="st8" d="M439.2,227.9c0,0.3-0.1,0.4-0.4,0.4c-0.5,0-0.5-0.4-0.6-0.7s0-0.4,0.3-0.4
			C438.8,227.3,439.1,227.6,439.2,227.9z"/>
		<path class="st2" d="M435,218c0,0.3-0.1,0.4-0.4,0.4C434.5,218.1,434.7,218,435,218z"/>
		<path class="st2" d="M435,235.2c0.1-0.2,0.2-0.4,0.5-0.3c0,0,0.1,0.1,0.1,0.2C435.5,235.3,435.2,235.2,435,235.2L435,235.2z"/>
		<path class="st2" d="M436.3,234.5l-0.2,0.1c0-0.1-0.1-0.1,0-0.2s0.1-0.1,0.2-0.1V234.5z"/>
		
			<image style="overflow:visible;enable-background:new    ;" width="960" height="930" xlink:href="E317F1EB.png"  transform="matrix(3.245314e-17 -0.53 0.56 3.429011e-17 -123.8 675.63)">
		</image>
		<text transform="matrix(1 0 0 1 159.0827 126.6902)" class="st9 st10 st11">Sputnik 1</text>
		<text transform="matrix(1 0 0 1 176.75 180.51)" class="st9 st12 st13">58cm</text>
		<text transform="matrix(1 0 0 1 393.63 180.51)" class="st9 st12 st13">58cm</text>
		<rect x="334" y="116" class="st14" width="146.1" height="16.1"/>
		<text transform="matrix(1 0 0 1 351.2619 128.8905)" class="st9 st10 st11">Pelota de playa</text>
	</g>
</g>
</svg>
